<svg width="48" height="48" viewBox="0 0 48 48" fill="none" xmlns="http://www.w3.org/2000/svg">
<g id="Frame">
<g id="_x30_4">
<g id="Group">
<path id="Vector" d="M29.9043 45.3553C29.5518 45.3553 29.2002 45.3347 28.8496 45.2944C28.7409 45.3084 28.6283 45.3038 28.5159 45.2775L22.768 43.9359C22.6827 43.9163 22.603 43.8853 22.5299 43.845C21.2465 43.4269 20.0624 42.7228 19.0096 41.7506C18.7762 41.535 18.5483 41.3063 18.3337 41.07L18.3177 41.0531C18.2277 40.9538 18.1349 40.8488 18.0421 40.7381L17.9812 40.6659C17.8752 40.5384 17.7824 40.4231 17.699 40.3144C17.1712 39.6291 16.6912 38.8566 16.273 38.0184C16.0658 37.6031 15.8746 37.1728 15.703 36.7369C15.7021 36.735 15.7021 36.7341 15.7012 36.7322C15.6543 36.6131 15.6083 36.4931 15.5633 36.3713C15.5624 36.3684 15.5587 36.3581 15.5577 36.3553C15.5146 36.2381 15.4724 36.12 15.4312 36L15.4227 35.9756C15.3815 35.8556 15.343 35.7403 15.3055 35.6231L15.2924 35.5828C15.2568 35.4703 15.2212 35.3559 15.1874 35.2416L15.1358 35.0634C15.1162 34.9931 15.0965 34.9237 15.0777 34.8544L15.0355 34.6987C15.0243 34.6547 15.0121 34.6106 15.0008 34.5656L13.1624 34.5684C13.1615 34.5684 13.1615 34.5684 13.1605 34.5684C13.079 34.5684 12.9993 34.5581 12.9243 34.5384C11.7777 34.44 10.6602 34.0856 9.59804 33.4856C9.36179 33.3516 9.12835 33.2062 8.90429 33.0525L8.8846 33.0394C8.79366 32.9766 8.69616 32.9072 8.59772 32.8341L8.53397 32.7872C8.41772 32.7 8.3221 32.625 8.23116 32.5509C7.7296 32.1431 7.24491 31.6706 6.79022 31.1466C6.72835 31.0753 6.66741 31.0031 6.60647 30.93C6.60554 30.9281 6.60366 30.9272 6.60272 30.9253C6.0571 30.2681 5.55366 29.5294 5.10554 28.7306L5.09616 28.7137C5.05022 28.6313 5.0071 28.5525 4.96397 28.4719L4.94147 28.4306C4.90022 28.3538 4.85991 28.2769 4.82054 28.2L4.79335 28.1466C4.75491 28.0706 4.71647 27.9947 4.67897 27.9178L4.65085 27.8597C4.61429 27.7838 4.57679 27.7059 4.54022 27.6281L4.51491 27.5737C4.47741 27.4941 4.44085 27.4134 4.40429 27.3319L4.38741 27.2934C3.62429 25.5713 3.1021 23.6766 2.83491 21.6628C2.81616 21.5212 2.79929 21.3787 2.78241 21.2362L2.77772 21.195C2.76366 21.0666 2.75054 20.9381 2.73835 20.8088L2.73179 20.7384C2.72054 20.6147 2.71022 20.4919 2.70085 20.3691L2.69522 20.2931C2.68491 20.1506 2.67554 20.0081 2.66804 19.8647C2.66804 19.8619 2.66804 19.8581 2.6671 19.8553C2.64554 19.4484 2.63429 19.035 2.63335 18.6291C2.63241 18.1753 2.64554 17.7075 2.67272 17.2397C2.68022 17.1159 2.68772 16.9969 2.69616 16.8787L2.6971 16.8609C2.70554 16.7484 2.71491 16.6331 2.72429 16.5187L2.72616 16.5C2.73647 16.3819 2.74772 16.2703 2.75897 16.1588L2.76085 16.1381C2.76085 16.1372 2.76179 16.1287 2.76179 16.1278C2.77304 16.0181 2.78522 15.9084 2.79835 15.7997L2.80116 15.7762C2.84429 15.4247 2.89304 15.0816 2.94929 14.7516C3.50522 11.4553 4.73616 8.565 6.51179 6.38531C8.34085 4.13906 10.574 2.86031 12.9787 2.67844C13.0443 2.66344 13.1127 2.65594 13.1821 2.65594L18.0665 2.64844H18.0674C18.1733 2.64844 18.2783 2.66625 18.3758 2.70094C21.2071 3.02812 23.8312 4.93875 25.6996 8.01469C26.1112 7.83656 26.5265 7.68469 26.9427 7.56C28.3734 7.13062 29.8012 7.02469 31.1896 7.24406C31.2599 7.24313 31.334 7.25156 31.4062 7.26844L37.0743 8.59125C37.184 8.61656 37.288 8.66156 37.3799 8.72344C40.4512 9.81938 42.8774 12.5541 44.2283 16.4522C45.5774 20.3456 45.7237 25.0509 44.638 29.7C43.5534 34.3491 41.3399 38.5031 38.4055 41.3972C35.7918 43.98 32.8152 45.3553 29.9043 45.3553ZM28.7362 43.3969C28.7802 43.3969 28.8252 43.3997 28.8712 43.4062C29.2115 43.455 29.5555 43.4794 29.9005 43.4794C32.3165 43.4794 34.8346 42.2906 37.0958 40.0603C39.7808 37.4119 41.8134 33.5803 42.8184 29.2716C43.8234 24.9628 43.6977 20.6269 42.463 17.0644C41.2743 13.6341 39.1809 11.2762 36.569 10.4241C36.5174 10.4072 36.4677 10.3856 36.4208 10.3613L31.1362 9.1275C31.1005 9.12563 31.064 9.12094 31.0283 9.11438C29.8808 8.91188 28.6893 8.9925 27.4874 9.35344C26.9071 9.52781 26.3249 9.76687 25.7559 10.0641C25.3002 10.3022 24.7368 10.1288 24.494 9.67406C22.8683 6.62625 20.4984 4.75594 17.9924 4.54313C17.9446 4.53938 17.8987 4.53187 17.8537 4.52062L13.3312 4.52719C13.3002 4.53187 13.2683 4.53562 13.2355 4.5375C9.27741 4.76156 5.8096 9.08437 4.80366 15.0516C4.75116 15.3619 4.70616 15.6769 4.66772 15.9947L4.66585 16.0116C4.66585 16.0125 4.66491 16.0209 4.66491 16.0219C4.65272 16.1212 4.64147 16.2216 4.63116 16.3228L4.62929 16.3425L4.62835 16.3519C4.61804 16.4541 4.60772 16.5562 4.59835 16.6594L4.59741 16.6725C4.59741 16.6744 4.59647 16.6809 4.59647 16.6828C4.5871 16.7878 4.57866 16.8938 4.57116 16.9997L4.57022 17.0166C4.56272 17.1216 4.55522 17.2312 4.5496 17.3409C4.52429 17.7769 4.5121 18.2072 4.51304 18.6253C4.51397 18.9975 4.52429 19.3762 4.54397 19.7503C4.54397 19.7541 4.54397 19.7578 4.54491 19.7616C4.55147 19.8919 4.56085 20.025 4.57022 20.1572L4.57585 20.2266C4.58429 20.3409 4.59366 20.4544 4.60397 20.5669L4.61054 20.6325C4.62179 20.7506 4.63397 20.8687 4.6471 20.9859L4.65179 21.0253C4.66679 21.1556 4.68272 21.2859 4.6996 21.4162C4.94241 23.2537 5.41679 24.975 6.10679 26.5331L6.12179 26.5678C6.1546 26.6409 6.18741 26.7131 6.22116 26.7844L6.24272 26.8313C6.27647 26.9025 6.30929 26.9719 6.3421 27.0403L6.36741 27.0919C6.40116 27.1603 6.43491 27.2288 6.4696 27.2962L6.49397 27.3441C6.5296 27.4125 6.56522 27.4809 6.60085 27.5484L6.62054 27.5859C6.65897 27.6572 6.69741 27.7275 6.73679 27.7978L6.74522 27.8128C7.13897 28.5141 7.57679 29.1572 8.04929 29.7272C8.05116 29.73 8.05304 29.7319 8.05491 29.7337C8.10554 29.7947 8.15804 29.8566 8.21147 29.9184C8.59585 30.3619 9.00272 30.7584 9.42085 31.0988C9.49397 31.1578 9.57272 31.2197 9.66929 31.2928L9.72085 31.3313C9.7996 31.3894 9.87741 31.4456 9.9571 31.5C9.95991 31.5019 9.97022 31.5084 9.97304 31.5112C10.1549 31.6359 10.3396 31.7512 10.5271 31.8572C11.3943 32.3475 12.3027 32.6259 13.2252 32.6841C13.2618 32.6859 13.2974 32.6906 13.333 32.6972L15.7452 32.6934C15.7452 32.6934 15.7462 32.6934 15.7471 32.6934C16.1877 32.6934 16.5693 33.0009 16.663 33.4313L16.7118 33.6478C16.7305 33.7284 16.7493 33.8091 16.7699 33.8897C16.7699 33.8897 16.7718 33.8991 16.7727 33.8991L16.783 33.9394C16.783 33.9403 16.7858 33.9506 16.7858 33.9516L16.799 34.005C16.8177 34.0781 16.8365 34.1494 16.8552 34.2206L16.8937 34.3622C16.9105 34.4241 16.9283 34.4869 16.9462 34.5497L16.993 34.71C17.024 34.8131 17.0549 34.9153 17.0877 35.0166L17.099 35.0522C17.1327 35.1581 17.1674 35.2612 17.203 35.3653L17.2124 35.3916C17.249 35.4975 17.2865 35.6034 17.3258 35.7084C17.3268 35.7113 17.3305 35.7206 17.3315 35.7234C17.3718 35.8313 17.413 35.94 17.4552 36.0469C17.4562 36.0488 17.4562 36.0497 17.4571 36.0516C17.609 36.4369 17.7777 36.8166 17.9587 37.1794C18.3243 37.9125 18.7387 38.5819 19.1924 39.1706C19.2618 39.2606 19.3405 39.3581 19.4315 39.4678L19.4821 39.5278C19.5618 39.6216 19.6387 39.7106 19.7137 39.7922L19.7277 39.8081C19.9058 40.0031 20.0943 40.1934 20.2883 40.3725C21.1809 41.1966 22.1821 41.7806 23.263 42.1078C23.3034 42.12 23.3418 42.135 23.3793 42.1509L28.7155 43.3969C28.7183 43.3969 28.7268 43.3969 28.7362 43.3969Z" fill="#231A15"/>
</g>
<g id="Group_2">
<g id="Group_3">
<g id="Group_4">
<path id="Vector_2" d="M36.8595 9.53445L36.867 9.50445L31.1989 8.18164C30.9514 8.56133 30.6805 8.92508 30.4386 9.30945C30.1583 9.7557 29.5705 9.61602 29.3792 9.27289L29.023 10.7982C25.1961 13.2066 21.9195 18.0423 20.5133 24.0685C19.107 30.0948 19.9039 35.882 22.2692 39.7351L21.7864 41.8032C21.9523 41.6823 22.1061 41.5679 22.2045 41.4573C22.5973 41.0157 23.3323 41.4395 23.203 41.9945C23.1233 42.3366 23.0464 42.6807 22.9827 43.0257L28.7305 44.3673L28.738 44.3373C34.9573 45.2345 41.5648 38.7741 43.7323 29.4882C45.8998 20.2023 42.8333 11.4835 36.8595 9.53445Z" fill="#A58E07"/>
</g>
<g id="Group_5">
<path id="Vector_3" d="M20.8946 41.5718C20.8871 41.5774 20.8805 41.5821 20.873 41.5877L20.8796 41.5596C20.8843 41.5634 20.889 41.568 20.8946 41.5718ZM22.1415 42.4531C22.1396 42.4643 22.1368 42.4746 22.134 42.4859L22.2455 42.5121C22.2109 42.4915 22.1762 42.4727 22.1415 42.4531ZM38.7296 13.6821L41.468 14.3215C41.1099 13.6502 40.7096 13.0277 40.2671 12.4634L37.5296 11.824C37.9712 12.3884 38.3715 13.0109 38.7296 13.6821ZM42.5499 16.894C42.3174 16.1759 42.0465 15.4905 41.7371 14.8474L38.9987 14.208C39.308 14.8512 39.5799 15.5355 39.8115 16.2546L42.5499 16.894ZM43.3618 20.704C43.2324 19.5818 43.0205 18.5065 42.7327 17.494L39.9943 16.8546C40.283 17.8671 40.494 18.9424 40.6234 20.0646L43.3618 20.704ZM43.4949 24.2627C43.5296 23.3074 43.5099 22.3718 43.4359 21.4643L40.6974 20.8249C40.7705 21.7324 40.7912 22.668 40.7555 23.6234L43.4949 24.2627ZM43.118 27.7952C43.2943 26.7884 43.4115 25.7909 43.4687 24.814L40.7302 24.1746C40.673 25.1524 40.5559 26.149 40.3796 27.1559L43.118 27.7952ZM39.5996 30.409L42.338 31.0484C42.5152 30.469 42.6755 29.8774 42.8171 29.2727C42.8902 28.9577 42.9568 28.6427 43.0187 28.3296L40.2802 27.6902C40.2184 28.0043 40.1527 28.3184 40.0787 28.6334C39.9371 29.238 39.7768 29.8296 39.5996 30.409ZM41.2205 34.0362C41.5496 33.2993 41.8496 32.5324 42.1168 31.7393L39.3784 31.0999C39.1112 31.894 38.8112 32.6599 38.4821 33.3968L41.2205 34.0362ZM39.6324 37.008C40.1059 36.259 40.5465 35.4621 40.9487 34.623L38.2102 33.9837C37.808 34.8227 37.3674 35.6187 36.894 36.3687L39.6324 37.008ZM38.0171 39.2299C38.5487 38.5934 39.0559 37.9052 39.5293 37.1693L36.7909 36.5299C36.3174 37.2659 35.8112 37.954 35.2787 38.5905L38.0171 39.2299ZM35.9321 41.343C36.5874 40.7871 37.2193 40.158 37.8193 39.4624L35.0809 38.823C34.4809 39.5177 33.849 40.1468 33.1937 40.7037L35.9321 41.343ZM29.2496 43.0324C28.4105 43.3268 27.5593 43.5059 26.7071 43.5527L29.4418 44.1912C30.2949 44.1443 31.1471 43.9662 31.9871 43.6709L29.2496 43.0324ZM31.2352 42.1034C30.6362 42.4549 30.0259 42.7474 29.4071 42.9762L32.1446 43.6146C32.7634 43.3859 33.3746 43.0934 33.9737 42.7418L31.2352 42.1034ZM34.1959 42.6087C34.6974 42.3002 35.1905 41.9496 35.6705 41.5605L32.9321 40.9212C32.4521 41.3112 31.959 41.6609 31.4574 41.9693L34.1959 42.6087ZM39.9868 12.1184C39.4084 11.4377 38.7671 10.8499 38.0668 10.3709L35.3312 9.73242C36.0305 10.2115 36.6718 10.7993 37.2493 11.4799L39.9868 12.1184Z" fill="#FFE000"/>
</g>
<g id="Group_6">
<path id="Vector_4" d="M39.1648 28.4223C41.4119 18.7956 38.036 9.77839 31.6245 8.28186C25.2131 6.78534 18.194 13.3762 15.947 23.0029C13.7 32.6296 17.0759 41.6468 23.4873 43.1433C29.8988 44.6398 36.9178 38.049 39.1648 28.4223Z" fill="#FFE000"/>
</g>
<g id="Group_7" opacity="0.64">
<path id="Vector_5" d="M38.7474 15.5916C39.3568 17.3156 39.729 19.2562 39.8321 21.3244L17.2581 37.8834C16.4715 36.3872 15.8987 34.65 15.5715 32.7506L38.7474 15.5916ZM39.7984 24.2437L18.4431 39.7434C18.8153 40.2262 19.2174 40.6669 19.6468 41.0625L39.6418 25.8037C39.7103 25.2797 39.7628 24.7594 39.7984 24.2437ZM35.2215 37.2816C36.1178 36.0441 36.9193 34.6481 37.5962 33.1247L24.5668 43.3172C25.5971 43.4147 26.6349 43.3134 27.6596 43.0341L35.2215 37.2816ZM15.6634 24.3778C15.5396 25.0688 15.4449 25.7541 15.3774 26.4328L36.1628 11.0691C35.8693 10.74 35.5599 10.4334 35.2356 10.1531L15.6634 24.3778ZM17.319 18.7575C16.9037 19.7447 16.5418 20.7834 16.2399 21.8653L33.624 9.03656C33.0437 8.72531 32.4278 8.48438 31.7818 8.32031L17.319 18.7575Z" fill="white"/>
</g>
<g id="Group_8">
<path id="Vector_6" d="M36.9354 27.9011C38.7508 20.1233 36.0232 12.838 30.843 11.6288C25.6629 10.4197 19.9918 15.7447 18.1763 23.5225C16.3609 31.3003 19.0885 38.5857 24.2687 39.7948C29.4488 41.0039 35.1199 35.679 36.9354 27.9011Z" fill="#A58E07"/>
</g>
<g id="Group_9">
<path id="Vector_7" d="M36.7162 27.8501C38.3987 20.6421 35.871 13.8904 31.0705 12.7699C26.27 11.6494 21.0145 16.5843 19.332 23.7924C17.6496 31.0005 20.1772 37.7521 24.9777 38.8726C29.7782 39.9931 35.0337 35.0582 36.7162 27.8501Z" fill="#FFE000"/>
</g>
<g id="Group_10" opacity="0.38">
<path id="Vector_8" d="M36.7159 27.85C36.6981 27.9269 36.6784 28.0037 36.6597 28.0806L23.3537 38.2347C22.855 37.9525 22.3919 37.6009 21.9662 37.1875L37.0206 26.2609C36.9409 26.7869 36.8406 27.3175 36.7159 27.85ZM18.9297 30.265C19.1641 32.2347 19.7378 34.0075 20.5947 35.4362L37.2353 23.23C37.2137 21.1244 36.8237 19.1734 36.1262 17.5328L18.9297 30.265ZM21.9344 17.6641L28.6675 12.6953C26.1859 13.0947 23.7616 14.9209 21.9344 17.6641ZM20.1578 21.1122C19.8691 21.8575 19.6188 22.6375 19.4153 23.4494L32.8647 13.5081C32.4306 13.2437 31.9684 13.0328 31.4819 12.8828L20.1578 21.1122Z" fill="white"/>
</g>
<g id="Group_11">
<path id="Vector_9" d="M31.586 29.1953C31.9826 27.4947 31.4473 25.9487 28.8748 24.3203L28.7604 24.2491L29.9445 19.1753C30.2501 19.2616 30.5773 19.3816 30.9223 19.5503L30.911 20.7513C30.9082 21.8875 31.3591 22.2991 31.8148 22.4059C32.2085 22.4978 32.6098 22.3731 32.877 21.9756C33.146 20.3031 32.0013 18.7853 30.177 18.1769L30.6176 16.2878L29.7879 16.0938L29.3491 17.9734C27.1132 17.6153 25.1866 18.8491 24.7179 20.8581C24.2341 22.9319 25.2579 24.3522 27.2566 25.6272L27.5041 25.7847L26.307 30.9138C25.8438 30.7947 25.3526 30.6297 24.8585 30.3934L24.8698 29.2028C24.8773 28.0459 24.4845 27.6691 23.9866 27.5538C23.5301 27.4469 23.187 27.6072 22.9029 27.9784C22.5701 29.7738 23.9163 31.3666 26.0745 31.9094L25.5804 34.0262L26.4101 34.2203L26.9126 32.0678C29.3548 32.3744 31.1135 31.2166 31.586 29.1953ZM26.4382 20.7991C26.7541 19.4462 27.8248 18.8988 29.1073 19.0141L27.9973 23.77C26.741 22.9741 26.1401 22.075 26.4382 20.7991ZM27.147 31.0666L28.2654 26.275C29.6538 27.2153 30.161 27.9906 29.876 29.2122C29.5638 30.55 28.5335 31.1884 27.147 31.0666Z" fill="#A58E07"/>
</g>
</g>
<g id="Group_12">
<g id="Group_13">
<path id="Vector_10" d="M23.6013 33.2821C26.6847 30.3009 29.3032 26.4815 30.2585 22.258C31.1013 18.5315 30.9316 14.1871 29.0107 10.8027C25.1885 13.213 21.9175 18.0459 20.5122 24.0655C19.5428 28.2187 19.6207 32.2584 20.5366 35.6296C21.7057 35.0315 22.7688 34.0865 23.6013 33.2821Z" fill="#5D5004"/>
</g>
<g id="Group_14">
<path id="Vector_11" d="M31.8404 20.1476C31.8282 20.1016 31.8179 20.0557 31.8066 20.0098C31.7888 20.1898 31.7701 20.3698 31.7476 20.5498C31.7822 20.4907 31.8179 20.4326 31.8544 20.3745C31.8488 20.2995 31.8441 20.2235 31.8404 20.1476Z" fill="#5D5004"/>
</g>
<g id="Group_15">
<path id="Vector_12" d="M17.0924 36.4948C17.1028 36.4966 17.1159 36.4985 17.1281 36.5013C17.2518 36.2445 17.5293 36.1479 17.8115 36.1891C20.0024 36.5126 22.1512 34.6835 23.6006 33.282C26.684 30.3007 29.3024 26.4813 30.2578 22.2579C31.3124 17.5938 30.7837 11.9595 27.2165 8.45508C22.2656 9.94008 17.6831 15.5641 15.9478 23.0004C14.7965 27.9354 15.1218 32.7091 16.5768 36.3926C16.7606 36.3438 16.9471 36.3926 17.0924 36.4948Z" fill="#B7A100"/>
</g>
<g id="Group_16">
<path id="Vector_13" d="M31.8404 20.1476C31.8282 20.1016 31.8179 20.0557 31.8066 20.0098C31.7888 20.1898 31.7701 20.3698 31.7476 20.5498C31.7822 20.4907 31.8179 20.4326 31.8544 20.3745C31.8488 20.2995 31.8441 20.2235 31.8404 20.1476Z" fill="#B7A100"/>
</g>
<g id="Group_17">
<path id="Vector_14" d="M28.8102 10.4629L17.3193 18.756C16.904 19.7432 16.5421 20.782 16.2402 21.8638L29.6043 12.0013C29.3765 11.4698 29.113 10.9551 28.8102 10.4629Z" fill="white"/>
</g>
<g id="Group_18">
<path id="Vector_15" d="M30.2186 13.7988L15.6639 24.3776C15.5401 25.0685 15.4454 25.7538 15.3779 26.4326L30.5251 15.236C30.4454 14.7513 30.3442 14.2713 30.2186 13.7988Z" fill="white"/>
</g>
<g id="Group_19">
<path id="Vector_16" d="M15.5718 32.749C15.7958 34.0474 16.1343 35.2699 16.5768 36.3921C16.7605 36.3434 16.9471 36.3921 17.0924 36.4943C17.1027 36.4962 17.1158 36.498 17.128 36.5009C17.2518 36.244 17.5293 36.1474 17.8115 36.1887C18.5493 36.2974 19.2824 36.1615 19.9855 35.8802L23.8124 33.0724C26.803 30.123 29.324 26.3824 30.2568 22.2565C30.2905 22.1065 30.3233 21.9546 30.3533 21.8027L15.5718 32.749Z" fill="white"/>
</g>
<g id="Group_20">
<path id="Vector_17" d="M23.6015 33.282C26.6849 30.3007 29.3034 26.4813 30.2587 22.2579C31.0481 18.7666 30.9506 14.7335 29.3559 11.4551C24.6196 11.4523 19.8196 16.482 18.1771 23.5207C17.0568 28.3207 17.6671 32.9323 19.5159 36.0448C21.0824 35.5807 22.5318 34.3151 23.6015 33.282Z" fill="#5D5004"/>
</g>
<g id="Group_21">
<path id="Vector_18" d="M31.8404 20.1476C31.8282 20.1016 31.8179 20.0557 31.8066 20.0098C31.7888 20.1898 31.7701 20.3698 31.7476 20.5498C31.7822 20.4907 31.8179 20.4326 31.8544 20.3745C31.8488 20.2995 31.8441 20.2235 31.8404 20.1476Z" fill="#5D5004"/>
</g>
<g id="Group_22">
<path id="Vector_19" d="M31.8404 20.1476C31.8282 20.1016 31.8179 20.0557 31.8066 20.0098C31.7888 20.1898 31.7701 20.3698 31.7476 20.5498C31.7822 20.4907 31.8179 20.4326 31.8544 20.3745C31.8488 20.2995 31.8441 20.2235 31.8404 20.1476Z" fill="#B7A100"/>
</g>
<g id="Group_23">
<path id="Vector_20" d="M23.6016 33.2814C26.685 30.3002 29.3034 26.4808 30.2588 22.2574C30.9572 19.1674 30.9609 15.6517 29.8472 12.6114C25.4081 12.497 20.8734 17.1902 19.3331 23.7892C18.2756 28.322 18.8822 32.673 20.6719 35.5577C21.7875 34.9586 22.8009 34.0549 23.6016 33.2814Z" fill="#B7A100"/>
</g>
<g id="Group_24" opacity="0.38">
<path id="Vector_21" d="M21.9346 17.6621L28.6677 12.6934C26.1861 13.0927 23.7618 14.919 21.9346 17.6621Z" fill="white"/>
</g>
<g id="Group_25" opacity="0.38">
<path id="Vector_22" d="M30.2183 13.7988L20.158 21.1113C19.8693 21.8566 19.619 22.6366 19.4155 23.4485L30.5249 15.237C30.4452 14.7513 30.344 14.2713 30.2183 13.7988Z" fill="white"/>
</g>
<g id="Group_26" opacity="0.38">
<path id="Vector_23" d="M23.8136 33.0734C26.8042 30.1241 29.3252 26.3834 30.258 22.2584C30.2917 22.1084 30.3245 21.9566 30.3546 21.8047L18.9302 30.2628C19.1646 32.2325 19.7383 34.0053 20.5952 35.4341L23.8136 33.0734Z" fill="white"/>
</g>
<g id="Group_27">
<path id="Vector_24" d="M27.2575 25.6252L27.505 25.7827L26.5244 29.9845C26.9988 29.3536 27.445 28.6992 27.8566 28.0261L28.2653 26.273C28.4116 26.3723 28.5466 26.4698 28.6741 26.5655C28.9788 25.9692 29.2535 25.3589 29.4953 24.7373C29.3031 24.5977 29.0969 24.458 28.8756 24.3173L28.7613 24.2461L29.9453 19.1723C30.1797 19.238 30.4263 19.3242 30.6841 19.4367C30.7103 19.0917 30.7281 18.7448 30.7356 18.398C30.5575 18.3136 30.3719 18.2377 30.1788 18.173L30.6194 16.2839L29.7897 16.0898L29.351 17.9695C27.115 17.6114 25.1885 18.8452 24.7197 20.8542C24.235 22.9298 25.2588 24.3492 27.2575 25.6252ZM26.4381 20.798C26.7541 19.4452 27.8238 18.8977 29.1072 19.013L27.9972 23.7689C26.741 22.973 26.14 22.0739 26.4381 20.798Z" fill="#5D5004"/>
</g>
<g id="Group_28">
<path id="Vector_25" d="M31.8403 20.1476C31.8281 20.1016 31.8178 20.0557 31.8056 20.0098C31.7878 20.1916 31.7671 20.3726 31.7446 20.5535C31.7803 20.4935 31.8159 20.4335 31.8534 20.3754C31.8487 20.2995 31.844 20.2235 31.8403 20.1476Z" fill="#5D5004"/>
</g>
<g id="Group_29">
<path id="Vector_26" d="M25.1979 31.6105C25.4342 31.3433 25.6648 31.0705 25.8907 30.793C25.5542 30.688 25.2073 30.5577 24.8595 30.3917L24.8707 29.2011C24.8782 28.0442 24.4854 27.6674 23.9876 27.5521C23.531 27.4452 23.1879 27.6055 22.9038 27.9767C22.6188 29.5142 23.5657 30.9017 25.1979 31.6105Z" fill="#5D5004"/>
</g>
</g>
<g id="Group_30">
<g id="Group_31">
<path id="Vector_27" d="M18.072 3.61023V3.58398L13.1877 3.59148C13.0583 3.94867 12.9064 4.29836 12.7836 4.65836C12.6402 5.07648 12.133 5.07555 11.9108 4.8318L11.9127 6.14617C9.24829 8.84898 7.49985 13.4287 7.50735 18.6215C7.51485 23.8143 9.27735 28.3893 11.9492 31.0827L11.952 32.8649C12.0645 32.7346 12.1677 32.6109 12.2277 32.5021C12.4639 32.0662 13.1455 32.2705 13.1464 32.7496C13.1473 33.0449 13.1502 33.3402 13.1642 33.6346L18.117 33.6271V33.6009C23.3698 33.1396 27.5277 26.594 27.5164 18.5915C27.5052 10.589 23.3267 4.05648 18.072 3.61023Z" fill="#A58E07"/>
</g>
<g id="Group_32">
<path id="Vector_28" d="M11.1796 32.8494C11.1749 32.855 11.1702 32.8606 11.1655 32.8663V32.8419C11.1702 32.8438 11.1749 32.8466 11.1796 32.8494ZM12.3683 33.3294C12.3683 33.3388 12.3683 33.3481 12.3683 33.3575H12.464C12.4321 33.3472 12.4002 33.3388 12.3683 33.3294ZM20.3962 6.64063L22.7558 6.63688C22.3349 6.15688 21.8877 5.72563 21.418 5.34875L19.0593 5.3525C19.529 5.72938 19.9752 6.16063 20.3962 6.64063ZM24.134 8.53156C23.8068 7.98875 23.4533 7.48156 23.0765 7.01563L20.7168 7.01938C21.0937 7.48531 21.4462 7.9925 21.7733 8.53531L24.134 8.53156ZM25.529 11.4884C25.2074 10.5969 24.8287 9.75875 24.3983 8.98625L22.0387 8.99C22.469 9.76156 22.8477 10.5997 23.1693 11.4922L25.529 11.4884ZM26.3212 14.3703C26.1665 13.5828 25.9705 12.8225 25.7362 12.095L23.3755 12.0988C23.6099 12.8263 23.8058 13.5866 23.9605 14.3741L26.3212 14.3703ZM26.6905 17.3281C26.6418 16.4713 26.5462 15.635 26.4046 14.825L24.044 14.8288C24.1846 15.6388 24.2802 16.475 24.3299 17.3319L26.6905 17.3281ZM24.3187 20.1388L26.6793 20.135C26.713 19.6278 26.7308 19.1131 26.7299 18.5919C26.7299 18.32 26.7233 18.0509 26.713 17.7828L24.3524 17.7866C24.3627 18.0547 24.3683 18.3238 24.3693 18.5956C24.3693 19.1169 24.3524 19.6316 24.3187 20.1388ZM26.339 22.7909C26.4665 22.1263 26.5649 21.4419 26.6305 20.7425L24.2699 20.7463C24.2043 21.4456 24.1058 22.13 23.9783 22.7947L26.339 22.7909ZM25.6115 25.5228C25.8543 24.8197 26.0615 24.0847 26.2293 23.3216L23.8687 23.3253C23.7018 24.0884 23.4937 24.8234 23.2508 25.5266L25.6115 25.5228ZM24.719 27.6491C25.0312 27.0266 25.3133 26.3675 25.559 25.6756L23.1993 25.6794C22.9537 26.3713 22.6724 27.0313 22.3593 27.6528L24.719 27.6491ZM23.4215 29.7753C23.8508 29.195 24.2455 28.5603 24.6027 27.8769L22.243 27.8806C21.8868 28.5631 21.4912 29.1988 21.0618 29.7791L23.4215 29.7753ZM18.2868 32.4378C17.6577 32.84 16.9968 33.1494 16.3096 33.3509L18.6665 33.3472C19.3546 33.1456 20.0165 32.8363 20.6455 32.4341L18.2868 32.4378ZM19.7296 31.2978C19.3077 31.7 18.8652 32.0563 18.404 32.3619L20.7627 32.3581C21.224 32.0525 21.6674 31.6963 22.0893 31.2941L19.7296 31.2978ZM22.2458 31.1422C22.5965 30.7934 22.9321 30.4128 23.2499 30.0031L20.8902 30.0069C20.5724 30.4175 20.2377 30.7981 19.8871 31.1459L22.2458 31.1422ZM21.1237 5.12188C20.5208 4.67656 19.8833 4.31938 19.2196 4.0625L16.8618 4.06625C17.5255 4.32313 18.1621 4.68031 18.764 5.12563L21.1237 5.12188Z" fill="#FFE000"/>
</g>
<g id="Group_33">
<path id="Vector_29" d="M13.6002 33.6336C19.1253 33.6254 23.5942 26.8933 23.5818 18.5971C23.5694 10.301 19.0804 3.58227 13.5553 3.59052C8.03024 3.59878 3.56132 10.3309 3.57371 18.627C3.58611 26.9232 8.07513 33.6419 13.6002 33.6336Z" fill="#FFE000"/>
</g>
<g id="Group_34" opacity="0.64">
<path id="Vector_30" d="M20.7777 8.19781C21.6064 9.48969 22.2833 11.0028 22.7642 12.6734L7.5008 30.5338C6.5708 29.4631 5.76924 28.1525 5.13736 26.6647L20.7777 8.19781ZM23.2977 15.0641L8.82643 31.8266C9.22299 32.1491 9.63643 32.4322 10.063 32.6731L23.4692 16.3691C23.4242 15.9275 23.3671 15.4925 23.2977 15.0641ZM22.0611 26.5934C22.5552 25.4103 22.9433 24.1166 23.203 22.7422L14.5161 33.5703C15.3767 33.4522 16.2055 33.17 16.9883 32.7453L22.0611 26.5934ZM3.60643 19.8069C3.63736 20.3947 3.69174 20.9731 3.76674 21.5403L17.7983 4.99906C17.4946 4.78625 17.1833 4.59594 16.8646 4.42906L3.60643 19.8069ZM3.87924 14.8981C3.73018 15.7841 3.63361 16.7028 3.59424 17.6441L15.3336 3.82531C14.7992 3.68281 14.2508 3.60406 13.6911 3.59375L3.87924 14.8981Z" fill="white"/>
</g>
<g id="Group_35">
<path id="Vector_31" d="M13.596 30.748C18.0601 30.7413 21.671 25.3021 21.6609 18.599C21.6509 11.896 18.0239 6.46758 13.5597 6.47425C9.0955 6.48092 5.48468 11.9202 5.4947 18.6232C5.50471 25.3262 9.13177 30.7547 13.596 30.748Z" fill="#A58E07"/>
</g>
<g id="Group_36">
<path id="Vector_32" d="M13.9979 29.8582C18.1348 29.852 21.481 24.8115 21.4717 18.5998C21.4624 12.3882 18.1012 7.35763 13.9643 7.36381C9.8273 7.36999 6.48116 12.4105 6.49044 18.6222C6.49972 24.8338 9.86091 29.8644 13.9979 29.8582Z" fill="#FFE000"/>
</g>
<g id="Group_37" opacity="0.38">
<path id="Vector_33" d="M21.4716 18.6007C21.4716 18.6673 21.4706 18.7338 21.4706 18.8004L12.5494 29.6501C12.0881 29.5151 11.6419 29.3163 11.2144 29.0604L21.4153 17.2441C21.4509 17.6895 21.4706 18.1413 21.4716 18.6007ZM7.40438 23.9885C7.97344 25.5523 8.7825 26.891 9.7575 27.8932L21.0094 14.727C20.5875 13.0113 19.8947 11.4916 19.0097 10.286L7.40438 23.9885ZM7.44 13.1173L11.9869 7.76602C10.0369 8.56852 8.40563 10.5251 7.44 13.1173ZM6.65063 16.2748C6.55781 16.9395 6.50344 17.6248 6.49219 18.326L15.5719 7.62258C15.1659 7.49039 14.7488 7.40695 14.3222 7.37695L6.65063 16.2748Z" fill="white"/>
</g>
<g id="Group_38">
<path id="Vector_34" d="M17.5385 20.6855C17.5366 19.2202 16.8016 18.0595 14.3875 17.2233L14.2807 17.1867L14.2741 12.8142C14.5404 12.8255 14.831 12.8611 15.1441 12.9333L15.3654 13.9158C15.581 14.8448 16.0282 15.0942 16.4219 15.0933C16.7613 15.0923 17.065 14.9133 17.2075 14.5383C17.1063 13.1198 15.88 12.0998 14.2732 11.9527L14.2704 10.3242L13.555 10.3252L13.5579 11.9452C11.6622 12.0811 10.3254 13.4592 10.3282 15.1908C10.331 16.9777 11.44 17.9414 13.3179 18.5995L13.5504 18.6811L13.5569 23.1005C13.1557 23.092 12.7225 23.0517 12.2735 22.9533L12.0541 21.9792C11.8385 21.0323 11.4447 20.8008 11.0154 20.8008C10.6225 20.8017 10.3722 20.9986 10.2119 21.3558C10.285 22.8858 11.6904 23.9292 13.5579 23.9583L13.5607 25.7827L14.276 25.7817L14.2732 23.9264C16.3263 23.7108 17.5404 22.4273 17.5385 20.6855ZM11.7213 14.8139C11.7194 13.6486 12.4891 12.9952 13.5588 12.8433L13.5654 16.942C12.386 16.5323 11.7222 15.9136 11.7213 14.8139ZM14.2713 23.0658L14.2647 18.9361C15.58 19.4377 16.1425 19.9739 16.1444 21.0267C16.1463 22.1798 15.4272 22.8989 14.2713 23.0658Z" fill="#A58E07"/>
</g>
</g>
</g>
</g>
</g>
</svg>
