<svg width="84" height="78" viewBox="0 0 84 78" fill="none" xmlns="http://www.w3.org/2000/svg">
<g id="Frame" clip-path="url(#clip0_1011_1507)">
<path id="Vector" d="M43.6177 62.9054C42.6039 63.6839 41.6071 64.4366 40.6526 65.144C35.3522 69.0772 32.3086 71.003 27.2033 72.783C22.2273 74.5113 20.0422 70.6896 19.8398 70.3255C19.5565 69.9447 19.5608 69.6249 19.6546 69.4047C19.4352 69.1679 19.248 68.9032 19.0978 68.6175C18.9912 68.4291 18.9458 68.2123 18.9677 67.9966C18.9896 67.7809 19.0778 67.577 19.2202 67.4129C18.5559 65.8684 19.53 64.7965 20.2444 63.999L20.459 63.7592C21.2009 62.9114 23.9238 59.7042 23.952 59.6716C23.9652 59.6557 23.98 59.6413 23.9962 59.6285C24.163 59.4748 25.1012 57.995 25.9159 56.6485C25.999 56.3807 26.1585 56.1425 26.3746 55.9632C26.4694 55.8899 26.5774 55.8355 26.6927 55.8031C26.8679 55.3612 27.4425 54.2119 29.209 50.8098C29.838 49.5949 30.492 48.3407 30.5471 48.1923C30.6681 47.8377 31.7146 45.8503 32.0132 45.2844C31.7803 44.5887 32.2756 43.2331 33.051 41.2947C33.3724 40.4881 33.8115 39.3824 33.768 39.1487C33.4875 38.3359 34.1135 36.5524 34.5176 36.0903C34.7488 35.8267 35.0409 34.8742 35.1832 34.2984C34.9219 32.611 35.524 31.854 35.725 31.6539C35.9284 31.1482 36.0172 29.5505 36.0263 28.6196C35.6536 24.9195 35.8024 21.1834 36.4684 17.5202C36.4829 17.4524 36.5212 17.3919 36.5763 17.3496C36.6146 17.3201 36.6596 17.3006 36.7073 17.2928C36.7189 17.284 38.337 17.022 39.4656 16.7041C39.9907 16.5552 40.5427 16.671 41.0654 17.038C41.588 17.4051 42.0137 17.993 42.039 18.3633C42.0701 18.6431 42.8693 21.1817 43.4295 22.8995C43.7751 22.7896 44.3422 22.6522 45.202 22.4366C47.0491 21.9822 49.8383 21.2949 51.2555 20.5632C51.4739 20.4531 51.6818 20.3234 51.8768 20.1757C53.1414 19.2046 52.9354 17.8571 52.072 15.5507C51.0707 12.8781 51.8838 11.6445 52.9121 10.7102C52.9794 10.6494 53.0495 10.5901 53.1212 10.535C54.2205 9.6908 56.0044 9.44606 57.7113 11.2931C58.4916 12.1392 58.8621 12.8537 58.8128 13.4166C58.8021 13.5386 58.7689 13.6577 58.7151 13.7679C58.9982 14.0097 59.5119 14.5135 60.5649 15.5711C61.5364 16.5467 62.9939 18.0162 63.3099 18.1669C63.8331 18.25 65.6736 19.4071 67.1935 20.4098C70.3653 20.3835 73.1501 21.7962 74.9333 22.9937C76.8229 24.2577 78.1987 25.7022 78.3012 25.9985C78.3247 26.0646 78.3371 26.1341 78.3381 26.2044C78.3624 26.2107 78.3863 26.2187 78.4096 26.2281C78.5373 26.2794 78.6407 26.3772 78.6988 26.5018C81.0535 31.0038 79.4912 34.8967 73.4942 39.5022C67.9734 43.7419 61.5265 48.4148 61.0595 48.6179C60.8629 48.7194 60.6373 48.749 60.4217 48.7015L52.7504 54.8764C52.6588 55.0108 52.3344 55.4977 52.0776 55.9291C51.7511 56.4635 47.445 59.9661 43.6177 62.9054Z" fill="white"/>
<path id="Vector_2" d="M36.7529 17.5785C36.7529 17.5785 38.3844 17.31 39.5423 16.9824C40.7003 16.6549 41.7216 17.98 41.7477 18.3826C41.7739 18.7851 43.2437 23.2714 43.2437 23.2714C43.8446 22.9508 49.1584 21.9639 51.3844 20.8161C51.6182 20.6975 51.8409 20.5583 52.0499 20.4001C53.5261 19.2665 53.1733 17.6657 52.3404 15.4421C51.403 12.9364 52.1051 11.8263 53.1084 10.9241C53.1688 10.8686 53.2308 10.8155 53.2979 10.764C54.314 9.98369 55.9269 9.79156 57.496 11.4901C59.0289 13.1488 58.4286 13.7287 58.3176 13.8139L58.3014 13.8264C58.6155 13.8669 62.8625 18.4782 63.2656 18.4503C63.6687 18.4225 67.1056 20.7011 67.1056 20.7011C73.0935 20.6016 77.9095 25.7601 78.0247 26.0943C78.0485 26.1743 78.0451 26.2601 78.015 26.3382C77.9849 26.4163 77.9297 26.4823 77.8581 26.5259C77.8293 26.5484 77.7988 26.5687 77.767 26.5868C78.3247 26.3103 78.4321 26.6249 78.4321 26.6249C80.8501 31.2356 78.9144 34.9652 73.3173 39.2635C67.7202 43.5619 61.3675 48.166 60.9527 48.3437C60.5379 48.5214 60.3945 48.3516 60.3945 48.3516L52.533 54.6761C52.533 54.6761 52.1363 55.2626 51.8285 55.7807C51.576 56.2033 47.7733 59.3541 43.4455 62.6777C42.4733 63.4243 41.4742 64.1788 40.4827 64.9146C35.0858 68.9183 32.1279 70.769 27.1116 72.5118C22.0954 74.2546 20.0868 70.1674 20.0868 70.1674C19.6784 69.6357 20.0333 69.3632 20.0333 69.3632C19.754 69.1134 19.5239 68.8137 19.3546 68.4794C19.2657 68.3135 19.2386 68.1214 19.2778 67.937C19.317 67.7525 19.4202 67.5876 19.569 67.4712C18.7489 65.8506 19.9256 64.808 20.6772 63.949C21.4289 63.09 24.1728 59.8575 24.1728 59.8575C24.4399 59.6525 26.1795 56.7705 26.1795 56.7705C26.2431 56.5458 26.3721 56.3448 26.5501 56.1931C26.6509 56.1079 26.7797 56.0632 26.9113 56.0676C26.8651 55.8232 30.69 48.6668 30.8197 48.2854C30.9495 47.904 32.3345 45.2925 32.3345 45.2925C31.7447 44.3403 34.2736 39.727 34.0442 39.0598C33.8147 38.3925 34.3579 36.7093 34.7338 36.2798C35.1096 35.8503 35.4731 34.3087 35.4731 34.3087C35.1649 32.4359 35.9648 31.8216 35.9648 31.8216C36.2944 31.1476 36.315 28.5996 36.315 28.5996C35.9388 24.926 36.0862 21.2153 36.7529 17.5785ZM36.3994 17.1182C36.2896 17.2045 36.2143 17.3273 36.1873 17.4641C35.507 21.1492 35.3564 24.9102 35.74 28.6333C35.7293 29.7154 35.6282 31.0482 35.4807 31.4926C35.2 31.7924 34.6445 32.6196 34.8876 34.2882C34.724 34.9462 34.4594 35.7239 34.2946 35.909C33.8416 36.427 33.1947 38.2503 33.4748 39.2061C33.4536 39.4968 33.0634 40.4771 32.7808 41.2027C32.0112 43.1367 31.5269 44.4563 31.7032 45.265C31.2894 46.0494 30.408 47.7325 30.2752 48.1052C30.1984 48.2923 29.5645 49.5128 28.9529 50.6905C27.3734 53.7331 26.7294 54.9979 26.4778 55.5845C26.3786 55.6263 26.2852 55.6808 26.1999 55.7467C25.9468 55.9517 25.7571 56.2243 25.6531 56.5326C24.8875 57.7993 23.9971 59.2076 23.7893 59.4275C23.7671 59.4468 23.7462 59.4677 23.727 59.49C23.7009 59.5229 20.9782 62.728 20.2444 63.5696L20.0324 63.8056C19.3251 64.5884 18.282 65.7427 18.8949 67.376C18.76 67.579 18.6843 67.8153 18.6762 68.0584C18.6681 68.3015 18.728 68.5418 18.8492 68.7522C18.9858 69.0098 19.1492 69.2523 19.3367 69.4755C19.305 69.6514 19.3114 69.8319 19.3554 70.0048C19.3995 70.1777 19.4801 70.339 19.592 70.4779C20.0335 71.2633 20.6428 71.9415 21.3767 72.4646C22.5185 73.2765 24.4721 74.0376 27.2983 73.0564C32.4431 71.268 35.4956 69.3227 40.8258 65.3756C41.7814 64.6674 42.7794 63.9138 43.7955 63.1335C47.1038 60.5928 51.9373 56.7217 52.3239 56.0717C52.5569 55.6787 52.8491 55.2384 52.9631 55.0686L60.5042 49.0065C60.7355 49.0224 60.9673 48.9791 61.1777 48.8808C61.7192 48.6479 68.3929 43.7845 73.6744 39.7285C76.7041 37.4018 78.5292 35.3562 79.4169 33.2913C80.3776 31.0605 80.2276 28.7954 78.9606 26.3654C78.8856 26.2072 78.7619 26.0772 78.6076 25.9943C78.6003 25.9633 78.5901 25.9309 78.5808 25.8996C78.4313 25.4656 76.9071 23.9594 75.0998 22.7475C73.2925 21.5355 70.4934 20.1138 67.2826 20.1132C66.9945 19.9247 66.3301 19.4927 65.6451 19.0673C64.1258 18.1227 63.6404 17.9118 63.3952 17.8678C62.9986 17.5906 61.6654 16.2542 60.7688 15.3547C59.8933 14.4755 59.3813 13.9667 59.0546 13.6706C59.076 13.5929 59.0901 13.5135 59.0967 13.4334C59.1555 12.7753 58.7703 12.0081 57.9201 11.0876C57.0951 10.1953 56.1935 9.69842 55.2392 9.6116C54.4146 9.54178 53.5928 9.78658 52.9391 10.2967C52.862 10.3559 52.7876 10.4186 52.7158 10.4846C52.2436 10.9131 51.6739 11.5208 51.4355 12.4284C51.1971 13.336 51.3217 14.3692 51.7992 15.6418C52.6286 17.8609 52.8228 19.0638 51.6957 19.9293C51.5142 20.0663 51.321 20.1871 51.1185 20.2903C49.7316 21.0041 46.9628 21.6869 45.1331 22.1424C44.4519 22.3106 43.9658 22.4314 43.6178 22.5286C42.9907 20.5969 42.3739 18.6189 42.3269 18.3184C42.2889 17.8572 41.8212 17.2028 41.2332 16.7889C40.6453 16.3751 39.9991 16.2492 39.382 16.4267C38.2728 16.7388 36.6763 17.0025 36.6615 17.0048C36.5661 17.0203 36.4761 17.0593 36.3994 17.1182Z" fill="black"/>
<path id="Vector_3" d="M79.627 30.3561L79.5946 30.381L62.2007 40.2991C62.1538 40.3264 62.1002 40.3397 62.0462 40.3373L55.2195 40.0911C55.1634 40.0888 55.1093 40.0702 55.0636 40.0378C55.018 40.0054 54.9828 39.9604 54.9622 39.9084C54.9416 39.8563 54.9366 39.7993 54.9477 39.7443C54.9588 39.6893 54.9856 39.6387 55.0249 39.5984C55.1468 39.47 67.2629 26.819 68.7621 24.9761C69.3293 24.2789 68.7587 22.818 67.1344 20.88C67.0988 20.8375 67.0762 20.7857 67.0692 20.7306C67.0622 20.6756 67.0712 20.6196 67.095 20.5694C67.1189 20.5191 67.1566 20.4767 67.2037 20.447C67.2509 20.4174 67.3055 20.4019 67.3611 20.4022C70.5043 20.4272 73.2641 21.8481 75.0211 23.0401C76.8637 24.2908 78.2083 25.7043 78.307 25.9908C78.3307 26.0571 78.3428 26.127 78.3427 26.1975C78.4211 26.2176 78.4942 26.2545 78.5567 26.3057C78.6192 26.3569 78.6697 26.4212 78.7046 26.4941C79.3577 27.749 79.6978 28.9313 79.7428 30.1098C79.745 30.1571 79.7356 30.2042 79.7154 30.2472C79.6952 30.2901 79.6649 30.3275 79.627 30.3561Z" fill="white"/>
<path id="Vector_4" d="M67.3561 20.6984C73.2332 20.737 77.9156 25.7622 78.0293 26.092C78.053 26.1718 78.0497 26.2573 78.0198 26.3352C77.9898 26.4131 77.935 26.479 77.8639 26.5228C77.8272 26.5504 77.7885 26.5752 77.7481 26.597C78.3251 26.3002 78.434 26.6191 78.434 26.6191C79.0729 27.841 79.4038 28.9994 79.4477 30.1238L62.0552 40.0463L55.2285 39.8001C55.2285 39.8001 67.4562 27.036 68.9802 25.1631C69.8314 24.1179 68.6049 22.2001 67.3511 20.6967M66.9976 20.2364C66.9242 20.2924 66.8654 20.3652 66.8261 20.4486C66.7784 20.5489 66.7604 20.6607 66.7742 20.7707C66.7881 20.8807 66.8331 20.9843 66.904 21.0693C68.3806 22.8389 68.9858 24.2275 68.5312 24.7962C67.0371 26.6315 54.927 39.2687 54.8089 39.3997C54.7324 39.4807 54.6807 39.5819 54.6598 39.6911C54.639 39.8004 54.6499 39.9132 54.6913 40.0162C54.7327 40.1192 54.8028 40.208 54.8933 40.2722C54.9839 40.3364 55.0911 40.3733 55.2022 40.3784L62.0289 40.6246C62.1369 40.6287 62.244 40.6023 62.3379 40.5483L79.7329 30.6292C79.755 30.6141 79.7762 30.5978 79.7965 30.5804C79.8703 30.5236 79.9294 30.45 79.969 30.3658C80.0086 30.2816 80.0274 30.1893 80.024 30.0965C79.9777 28.8733 79.63 27.6547 78.9532 26.3595C78.8786 26.2016 78.7552 26.0719 78.6011 25.9895C78.5929 25.9574 78.5836 25.9261 78.5734 25.8937C78.4311 25.4834 77.0035 24.0384 75.1761 22.798C73.3848 21.5829 70.5753 20.1308 67.3547 20.1103C67.2244 20.1094 67.0975 20.1522 66.9941 20.2317L66.9976 20.2364Z" fill="black"/>
<path id="Vector_5" d="M27.5507 65.4455C24.0516 68.1326 21.575 69.8131 20.2131 70.4327C20.1491 70.4619 20.0767 70.4671 20.0094 70.4471C19.942 70.4272 19.8843 70.3836 19.8469 70.3243C19.5561 69.9457 19.5679 69.6237 19.659 69.4001C19.4396 69.1632 19.2524 68.8986 19.1022 68.6128C18.9957 68.4245 18.9502 68.2076 18.9721 67.9919C18.9941 67.7763 19.0823 67.5724 19.2246 67.4083C18.5604 65.8637 19.5345 64.7918 20.2489 63.9944L20.4635 63.7546C21.2053 62.9068 23.9283 59.6996 23.9565 59.6669C23.9696 59.6511 23.9844 59.6367 24.0006 59.6239C24.1518 59.4421 24.2895 59.2495 24.4126 59.0477C24.431 59.0213 24.4533 58.998 24.4789 58.9785C24.5126 58.9518 24.5517 58.9328 24.5936 58.923C24.6354 58.9131 24.6788 58.9126 24.7207 58.9215C24.7627 58.9304 24.8021 58.9484 24.8362 58.9743C24.8702 59.0003 24.8981 59.0334 24.9178 59.0714C24.9613 59.1658 25.0264 59.2486 25.1079 59.3131C25.1894 59.3776 25.2849 59.4221 25.3869 59.443C25.8249 59.5347 26.7154 59.3614 28.5313 57.9668C33.7955 53.9241 45.7599 43.9016 45.8792 43.8009L45.8896 43.7929C45.9345 43.7583 45.9886 43.7374 46.0451 43.733C46.1016 43.7285 46.1581 43.7407 46.2077 43.7679C46.2573 43.7951 46.2978 43.8362 46.3242 43.8861C46.3506 43.9361 46.3618 43.9927 46.3565 44.0491L45.7548 50.2817C45.7479 50.356 45.7127 50.425 45.6565 50.4743C45.5534 50.5626 35.259 59.5221 27.55 65.4423L27.5507 65.4455Z" fill="#3E3F41"/>
<path id="Vector_6" d="M24.6456 59.2156C25.0384 59.9807 26.0869 60.2165 28.6935 58.2147C34.0224 54.1223 46.0517 44.0409 46.0517 44.0409L45.4613 50.2594C45.4613 50.2594 35.1639 59.234 27.374 65.2163C24.2853 67.5883 21.5904 69.4895 20.09 70.1752C19.6817 69.6435 20.0366 69.371 20.0366 69.371C19.7573 69.1211 19.5271 68.8214 19.3578 68.4871C19.269 68.3213 19.2418 68.1292 19.2811 67.9448C19.3203 67.7603 19.4234 67.5953 19.5723 67.479C18.7522 65.8584 19.9288 64.8157 20.6805 63.9567C21.4321 63.0977 24.1761 59.8653 24.1761 59.8653C24.3552 59.6652 24.515 59.4487 24.6535 59.2187M24.3 58.7584L24.278 58.7752C24.2325 58.8133 24.1933 58.8583 24.1617 58.9085C24.048 59.0881 23.9247 59.2615 23.7925 59.428C23.7706 59.447 23.7502 59.4676 23.7314 59.4896C23.7052 59.5225 20.9825 62.7276 20.2488 63.5692L20.0367 63.8052C19.3295 64.5881 18.2863 65.7423 18.8993 67.3756C18.7644 67.5786 18.6886 67.8149 18.6805 68.058C18.6725 68.3011 18.7324 68.5414 18.8536 68.7518C18.9901 69.0094 19.1535 69.2519 19.3411 69.4752C19.3101 69.6584 19.3197 69.846 19.3694 70.0248C19.419 70.2036 19.5074 70.3691 19.6283 70.5097C19.7069 70.6177 19.8205 70.6953 19.95 70.7292C20.0795 70.763 20.2169 70.7512 20.3391 70.6957C21.7209 70.0663 24.2111 68.3771 27.7275 65.6767C35.4423 59.752 45.7459 50.7855 45.8492 50.6951C45.9618 50.5969 46.0325 50.4594 46.0468 50.311L46.6372 44.0926C46.648 43.9799 46.6256 43.8668 46.5729 43.7669C46.5201 43.6671 46.4393 43.5849 46.3403 43.5304C46.2414 43.4759 46.1285 43.4515 46.0156 43.4602C45.9027 43.4689 45.7946 43.5103 45.7046 43.5793L45.6849 43.5944C45.5601 43.6902 33.6073 53.7111 28.3455 57.752C26.4602 59.1998 25.6874 59.2297 25.4416 59.1752C25.3838 59.1631 25.3299 59.1374 25.2842 59.1004C25.2384 59.0633 25.2022 59.0158 25.1785 58.9619C25.1601 58.9254 25.1383 58.8907 25.1135 58.8581C25.0198 58.736 24.8811 58.6564 24.7281 58.6366C24.5751 58.6169 24.4202 58.6587 24.2976 58.7529L24.3 58.7584Z" fill="black"/>
<path id="Vector_7" d="M43.6177 62.9054C42.604 63.6839 41.6071 64.4366 40.6527 65.144C35.3523 69.0773 32.3087 71.003 27.2034 72.783C24.4389 73.7442 22.5528 72.9752 21.4568 72.163C21.4106 72.1298 21.3753 72.0838 21.3551 72.0306C21.0642 71.2331 20.8695 70.6947 20.8695 70.6947C20.8484 70.6369 20.8464 70.5737 20.8636 70.5144C20.8808 70.4552 20.9165 70.4028 20.9654 70.3649L20.9816 70.3525C21.0851 70.284 31.6575 63.2516 37.6118 58.6789C39.5769 57.1698 40.791 56.1185 41.2362 55.5425C42.3189 54.1383 42.6888 51.2434 43.0155 48.6873C43.3207 46.2994 43.5856 44.2371 44.386 43.5492L44.4496 43.5004C46.3431 42.0463 67.2728 33.0903 74.3007 31.8683C74.3437 31.8618 74.3877 31.865 74.4292 31.8778C74.4708 31.8905 74.509 31.9124 74.5409 31.9418C74.5733 31.9713 74.5987 32.0077 74.615 32.0484C74.6313 32.0891 74.6381 32.133 74.635 32.1769L74.1517 38.8675C74.1488 38.9068 74.1378 38.9452 74.1196 38.9803C74.1014 39.0154 74.0762 39.0464 74.0456 39.0715C73.863 39.2118 73.6836 39.3587 73.4952 39.5034C67.9744 43.7431 61.5275 48.416 61.0605 48.6191C60.8639 48.7206 60.6382 48.7502 60.4227 48.7027L52.7504 54.8764C52.6588 55.0108 52.3345 55.4978 52.0777 55.9291C51.7511 56.4635 47.445 59.9662 43.6177 62.9054Z" fill="#0C1011"/>
<path id="Vector_8" d="M44.6302 43.7317C46.5202 42.2803 67.3224 33.3783 74.3535 32.1557L73.8686 38.8419C73.6883 38.9804 73.5101 39.1264 73.3228 39.2702C67.7213 43.5628 61.3675 48.1678 60.9526 48.3455C60.5378 48.5232 60.3945 48.3534 60.3945 48.3534L52.533 54.6779C52.533 54.6779 52.1362 55.2644 51.8284 55.7825C51.5759 56.2051 47.7733 59.3559 43.4454 62.6795C42.4733 63.4261 41.4742 64.1806 40.4827 64.9164C35.0858 68.9201 32.1279 70.7708 27.1116 72.5136C24.5362 73.4028 22.7552 72.7635 21.6299 71.9298C21.339 71.1323 21.1442 70.5939 21.1442 70.5939C21.3467 70.4604 31.8965 63.4344 37.7907 58.9079C39.5997 57.5186 40.9706 56.3652 41.469 55.7172C43.5907 52.9644 43.0456 45.0877 44.5785 43.7696L44.6294 43.7305M44.2758 43.2702L44.1995 43.3288C43.3146 44.0907 43.0562 46.1041 42.7297 48.651C42.4032 51.1979 42.0417 54.0223 41.0087 55.3644C40.7151 55.7454 39.8577 56.5887 37.4371 58.4476C31.5025 63.0051 20.9284 70.0425 20.8242 70.1078L20.7907 70.1336C20.6929 70.2084 20.6212 70.3122 20.5859 70.4301C20.5506 70.5479 20.5535 70.6737 20.5942 70.7894C20.5942 70.7894 20.7899 71.3289 21.0816 72.1276C21.1207 72.2335 21.1909 72.325 21.2831 72.39C22.4346 73.2457 24.4139 74.0547 27.3025 73.0494C32.4473 71.261 35.4998 69.3157 40.83 65.3686C41.8263 64.6297 42.8162 63.8823 43.7997 63.1265C47.108 60.5858 51.9416 56.7147 52.3282 56.0647C52.5623 55.6708 52.8533 55.2314 52.9673 55.0616L60.5085 48.9995C60.7398 49.0154 60.9715 48.9721 61.1819 48.8738C61.7235 48.6409 68.3971 43.7775 73.6786 39.7215C73.8601 39.5821 74.0427 39.4419 74.2325 39.287C74.2959 39.2366 74.3481 39.1737 74.3859 39.1021C74.4236 39.0306 74.4461 38.9521 74.4519 38.8715L74.9361 32.1821C74.9424 32.0942 74.9287 32.0061 74.8959 31.9245C74.8631 31.8428 74.8122 31.7698 74.7469 31.7108C74.6816 31.6519 74.6037 31.6086 74.5191 31.5842C74.4345 31.5598 74.3453 31.5549 74.2584 31.57C69.9006 32.3277 60.9815 35.8346 57.3478 37.3078C51.0314 39.8679 45.2898 42.4824 44.2772 43.26L44.2758 43.2702Z" fill="black"/>
<path id="Vector_9" d="M43.6177 62.9057C42.6039 63.6843 41.6071 64.437 40.6526 65.1444C35.3522 69.0776 32.3086 71.0033 27.2033 72.7834C22.2273 74.5116 20.0422 70.69 19.8398 70.3258C19.5566 69.9451 19.5609 69.6252 19.6546 69.4051C19.4352 69.1683 19.248 68.9036 19.0978 68.6178C18.9889 68.4225 18.9449 68.1974 18.9722 67.975C18.9994 67.7525 19.0966 67.5441 19.2496 67.3797C19.2528 67.3212 19.2737 67.265 19.3095 67.2184C19.323 67.1989 19.339 67.1811 19.357 67.1655C19.3887 67.1408 19.425 67.123 19.4638 67.113C19.5027 67.103 19.5431 67.1011 19.5826 67.1075C19.9687 67.1747 20.3128 67.3894 20.5422 67.7062C20.7075 67.9214 20.8762 68.1578 21.0552 68.41C21.5706 69.1338 22.2766 70.1249 22.6905 70.1327C22.7455 70.1325 28.4929 69.9543 34.2067 65.5663C39.746 61.3124 43.749 58.2382 45.1316 57.7582L45.4688 57.642C46.8155 57.1823 49.071 56.4125 51.0939 54.859C51.2095 54.7703 51.3355 54.6735 51.4515 54.5734C52.2377 53.9221 53.2307 53.1595 54.2872 52.3482C56.2974 50.8044 58.5769 49.0538 59.3804 48.0709C59.7041 47.6823 59.9738 47.2517 60.182 46.7912C60.4352 46.2619 60.6551 45.8039 61.6041 45.0751C61.7312 44.9775 61.8711 44.8701 62.0259 44.7677C62.2959 44.5786 62.6688 44.3343 63.0987 44.0517C64.1392 43.3679 65.5651 42.4321 66.9442 41.373C69.9854 39.0374 71.4729 37.1121 71.3693 35.6492C71.1112 32.1664 71.4639 31.7546 73.0024 30.5731C74.0081 29.8008 76.6556 27.5554 78.1447 26.2856L78.1563 26.2767C78.2008 26.2426 78.2542 26.2221 78.31 26.2175C78.3658 26.2129 78.4217 26.2245 78.4709 26.2509C78.5739 26.3044 78.6562 26.3905 78.7049 26.4957C81.0614 31 79.5002 34.892 73.502 39.4984C67.9813 43.7381 61.5343 48.411 61.0673 48.6141C60.8708 48.7156 60.6451 48.7452 60.4296 48.6977L52.7504 54.8768C52.6588 55.0112 52.3344 55.4981 52.0776 55.9295C51.7511 56.4638 47.445 59.9665 43.6177 62.9057Z" fill="#C31F4A"/>
<path id="Vector_10" d="M19.5337 67.3945C19.8505 67.4498 20.1318 67.6286 20.316 67.8915C21.0628 68.8639 21.9719 70.4162 22.6871 70.4286C23.4023 70.4411 28.9676 69.9636 34.3866 65.8019C39.8057 61.6403 43.8908 58.5032 45.2299 58.0383C46.4974 57.5973 49.0278 56.8195 51.2738 55.0947C51.3963 55.0006 51.5212 54.9047 51.6407 54.8019C52.4107 54.163 53.4083 53.3969 54.4417 52.6033L54.4914 52.5651C56.5721 50.9673 58.7869 49.2664 59.6091 48.2599C60.7544 46.8607 60.2619 46.4778 61.7843 45.3087C61.9068 45.2146 62.0409 45.1116 62.1957 45.0093C63.1042 44.3737 65.1595 43.1137 67.1189 41.609C69.5244 39.7617 71.7952 37.5403 71.6541 35.6361C71.3961 32.175 71.7521 31.9016 73.1728 30.8106C74.1912 30.0285 76.8831 27.7453 78.3266 26.5142C78.3751 26.5384 78.4134 26.579 78.4348 26.6287C80.8501 31.2359 78.9144 34.9656 73.3173 39.2639C67.7202 43.5622 61.3675 48.1664 60.9527 48.3441C60.5379 48.5218 60.3946 48.3519 60.3946 48.3519L52.5331 54.6765C52.5331 54.6765 52.1363 55.263 51.8285 55.7811C51.576 56.2037 47.7734 59.3545 43.4455 62.6781C42.4734 63.4247 41.4742 64.1792 40.4828 64.9149C35.0858 68.9187 32.1279 70.7694 27.1117 72.5122C22.0954 74.255 20.0868 70.1678 20.0868 70.1678C19.6785 69.6361 20.0333 69.3636 20.0333 69.3636C19.754 69.1138 19.5239 68.8141 19.3546 68.4797C19.2658 68.3139 19.2386 68.1218 19.2778 67.9374C19.317 67.7529 19.4202 67.588 19.569 67.4716L19.5337 67.3945ZM19.1802 66.9341C19.1385 66.9656 19.1014 67.0027 19.07 67.0443C19.0218 67.1083 18.9873 67.1816 18.9687 67.2594C18.7995 67.4667 18.6967 67.72 18.6738 67.986C18.6509 68.252 18.7089 68.5184 18.8402 68.7504C18.9767 69.008 19.1402 69.2505 19.3277 69.4737C19.2969 69.6506 19.3046 69.8319 19.3502 70.0052C19.3958 70.1786 19.4782 70.3399 19.592 70.4783C20.0336 71.2637 20.6428 71.9419 21.3768 72.465C22.5185 73.2769 24.4721 74.038 27.2983 73.0568C32.4431 71.2684 35.4956 69.323 40.8258 65.376C41.7814 64.6677 42.7794 63.9141 43.7955 63.1338C47.1038 60.5932 51.9373 56.7221 52.3239 56.0721C52.5569 55.6791 52.8491 55.2388 52.9631 55.0689L60.5042 49.0069C60.7355 49.0228 60.9673 48.9795 61.1777 48.8812C61.7192 48.6483 68.3929 43.7848 73.6744 39.7289C76.7041 37.4022 78.5292 35.3566 79.4169 33.2917C80.3765 31.0618 80.2285 28.7969 78.9624 26.3681C78.8868 26.2078 78.7614 26.0763 78.6047 25.9933C78.506 25.9407 78.3941 25.9178 78.2824 25.9273C78.1707 25.9368 78.064 25.9783 77.9751 26.0468L77.9508 26.0655C76.4651 27.3326 73.8223 29.5745 72.8212 30.3432C71.2156 31.5763 70.8062 32.0481 71.0735 35.6721C71.1986 37.3617 68.8 39.577 66.7655 41.1394C65.3946 42.1922 63.9754 43.1247 62.9348 43.8086C62.5027 44.0929 62.1295 44.3392 61.8551 44.5299C61.6995 44.6383 61.5547 44.7441 61.4229 44.8453C60.4184 45.6167 60.174 46.1264 59.915 46.6674C59.7176 47.1081 59.4605 47.5197 59.151 47.8908C58.3677 48.8473 56.1171 50.5757 54.13 52.1017L54.0803 52.1399C53.0804 52.9078 52.047 53.7014 51.262 54.3518C51.1464 54.4406 51.0361 54.5362 50.9124 54.6312C48.9276 56.1554 46.7015 56.9155 45.371 57.3701L45.0318 57.486C43.6045 57.982 39.5864 61.0677 34.0252 65.3385C31.8019 67.0386 29.2875 68.319 26.6063 69.1167C24.509 69.7357 22.9878 69.8464 22.6959 69.8419C22.3948 69.7896 21.6504 68.7438 21.2913 68.2402C21.1123 67.988 20.9418 67.7493 20.7739 67.5306C20.4989 67.1567 20.0899 66.9034 19.6317 66.8234C19.553 66.8099 19.4723 66.8128 19.3946 66.8318C19.3169 66.8509 19.2439 66.8857 19.1802 66.9341Z" fill="black"/>
<path id="Vector_11" d="M52.1321 53.2349C52.0962 53.2625 52.0544 53.2814 52.01 53.29C51.9656 53.2987 51.9199 53.297 51.8764 53.2849C51.4953 53.1787 51.2616 52.9868 51.1866 52.7169C51.0182 52.1291 51.635 51.4486 52.3501 50.6616C52.5584 50.4409 52.7857 50.2388 53.0293 50.0577C54.1702 49.1815 56.1295 48.1123 56.9853 47.8173C57.155 47.7583 57.674 47.5775 57.9772 47.8789C58.2419 48.1422 58.1124 48.5527 58.0968 48.5994C58.0784 48.6539 58.0442 48.7018 57.9985 48.7371L52.1321 53.2349Z" fill="white"/>
<path id="Vector_12" d="M53.2023 50.2842C54.3433 49.408 56.2598 48.3717 57.0756 48.0891C58.0788 47.7395 57.8181 48.5032 57.8181 48.5032L51.9551 53.0057C50.8787 52.7072 51.7194 51.7798 52.5612 50.8516C52.7587 50.6449 52.9731 50.4551 53.2023 50.2842ZM52.8488 49.8239C52.5912 50.0157 52.3509 50.2296 52.1306 50.4632C51.3571 51.3152 50.6893 52.0513 50.9034 52.7944C50.9777 53.0538 51.1931 53.3989 51.8 53.5695C51.887 53.5935 51.9785 53.5971 52.0672 53.5797C52.156 53.5624 52.2395 53.5246 52.3113 53.4695L58.1743 48.967C58.2655 48.8966 58.3339 48.8008 58.3708 48.6917C58.4374 48.5205 58.4549 48.3344 58.4214 48.1542C58.3879 47.974 58.3047 47.807 58.1812 47.6719C57.8965 47.3873 57.4613 47.3447 56.8892 47.5425C55.9916 47.8549 54.0317 48.921 52.8515 49.8273L52.8488 49.8239Z" fill="black"/>
<path id="Vector_13" d="M40.8841 30.8148C40.179 31.3563 38.4478 29.9085 37.7363 29.262C37.6904 29.22 37.6593 29.1644 37.6475 29.1033L36.0212 20.7999C36.0153 20.7725 36.0141 20.7443 36.0178 20.7165C36.1126 19.6442 36.263 18.5772 36.4684 17.52C36.4829 17.4522 36.5211 17.3917 36.5762 17.3493C36.6146 17.3199 36.6596 17.3004 36.7073 17.2926C36.7188 17.2838 38.3369 17.0218 39.4656 16.7039C39.9907 16.555 40.5427 16.6708 41.0653 17.0378C41.588 17.4049 42.0137 17.9928 42.0389 18.3631C42.0701 18.6429 42.8693 21.1815 43.4294 22.8993C43.7751 22.7894 44.3422 22.652 45.202 22.4364C47.0491 21.982 49.8382 21.2946 51.2555 20.563C51.4738 20.4529 51.6818 20.3232 51.8768 20.1755C53.1414 19.2044 52.9353 17.8568 52.0719 15.5505C51.0707 12.8779 51.8838 11.6443 52.9121 10.71C52.9793 10.6492 53.0495 10.5898 53.1212 10.5348C54.2205 9.69059 56.0043 9.44585 57.7113 11.2929C58.4907 12.1379 58.862 12.8535 58.8128 13.4164C58.802 13.5384 58.7689 13.6575 58.7151 13.7677C58.8119 13.8507 58.9369 13.9632 59.1043 14.1238C59.1587 14.1757 59.1907 14.2467 59.1937 14.3219C59.1966 14.3971 59.1702 14.4707 59.12 14.5271C59.1067 14.54 59.0919 14.5513 59.0761 14.5608C59.0238 14.601 58.9595 14.6223 58.8937 14.6214C58.8278 14.6204 58.7644 14.5972 58.7137 14.5555C57.8364 13.8296 55.2465 11.9599 53.8894 12.0305C53.7296 12.0287 53.5724 12.0736 53.4375 12.1599C53.0479 12.4591 53.517 13.4838 53.8055 13.9337C53.8123 13.9413 53.8186 13.9494 53.8241 13.9579C54.7178 15.7415 54.9084 17.3918 54.3906 18.8616C54.0162 19.8761 53.3556 20.7616 52.489 21.4106C52.258 21.5907 52.0124 21.7512 51.7547 21.8903C50.0346 23.1967 46.9362 23.8068 44.6722 24.252C43.7955 24.424 43.039 24.5731 42.5392 24.7264C42.1958 24.8233 41.8721 24.9803 41.5831 25.1899C40.9346 25.6879 40.8564 26.359 40.9339 27.2161C41.0336 28.2648 41.0546 30.4314 41.0557 30.5238C41.0562 30.5871 41.0359 30.649 40.998 30.6999C40.9654 30.7431 40.9271 30.7818 40.8841 30.8148Z" fill="#C31F4A"/>
<path id="Vector_14" d="M36.7527 17.5798C36.7527 17.5798 38.3842 17.3112 39.5421 16.9837C40.7 16.6561 41.7214 17.9813 41.7475 18.3838C41.7737 18.7864 43.2435 23.2727 43.2435 23.2727C43.8444 22.9521 49.1582 21.9652 51.3842 20.8174C51.618 20.6988 51.8407 20.5596 52.0497 20.4014C53.5259 19.2678 53.1731 17.667 52.3402 15.4433C51.4028 12.9377 52.1049 11.8276 53.1082 10.9254C53.1685 10.8699 53.2306 10.8167 53.2977 10.7653C54.3137 9.98496 55.9267 9.79282 57.4957 11.4914C59.0286 13.1501 58.4284 13.73 58.3174 13.8152L58.3012 13.8276C58.3644 13.8358 58.5886 14.0296 58.9069 14.334C58.9069 14.334 55.6421 11.6525 53.8769 11.742C53.658 11.7412 53.4437 11.8068 53.2625 11.9303C52.5331 12.4904 53.5631 14.0925 53.5631 14.0925C55.5254 18.014 53.4884 20.279 52.3105 21.1836C52.087 21.3591 51.8482 21.5143 51.5971 21.6473C49.2852 23.4228 44.2824 23.8909 42.4576 24.458C42.0804 24.5638 41.7251 24.7368 41.409 24.9687C40.5999 25.5901 40.5742 26.4588 40.6499 27.2514C40.7443 28.2931 40.7636 30.5269 40.7636 30.5269C40.748 30.5492 40.7289 30.5688 40.707 30.5849C40.1187 31.0368 37.9319 29.0459 37.9319 29.0459L36.3065 20.7437C36.401 19.6824 36.5499 18.6263 36.7527 17.5798ZM36.3992 17.1195C36.2894 17.2058 36.2141 17.3286 36.187 17.4653C35.9787 18.5343 35.8257 19.613 35.7287 20.6971C35.7233 20.753 35.7263 20.8093 35.7375 20.8642L37.3617 29.16C37.3851 29.2823 37.4478 29.3934 37.5404 29.4765C37.9294 29.8255 38.3373 30.153 38.7623 30.4574C39.5041 30.9855 40.4341 31.5264 41.0629 31.0435C41.1277 30.9943 41.1851 30.9361 41.2333 30.8705C41.3078 30.7685 41.3472 30.6451 41.3456 30.519C41.3453 30.4277 41.3239 28.2487 41.2239 27.1875C41.1497 26.4065 41.214 25.8394 41.7573 25.4221C42.0184 25.2335 42.3109 25.0925 42.621 25.0058C43.1057 24.8568 43.8613 24.7065 44.725 24.539C47.0081 24.0902 50.1309 23.4759 51.9055 22.135C52.1699 21.9902 52.4224 21.8245 52.6605 21.6394C53.8164 20.7516 56.2743 18.2091 54.0802 13.8254C54.0678 13.8092 54.0554 13.7931 54.0488 13.7726C53.6755 13.1884 53.4842 12.4846 53.6125 12.386C53.7005 12.3374 53.8003 12.314 53.9006 12.3185C55.0235 12.2611 57.3384 13.7967 58.5333 14.7783C58.6484 14.8813 58.8 14.9342 58.9547 14.9254C59.1094 14.9165 59.2545 14.8467 59.3581 14.7312C59.4617 14.6158 59.5153 14.4641 59.5071 14.3097C59.4989 14.1552 59.4296 14.0105 59.3145 13.9076C59.2205 13.8187 59.1374 13.7416 59.0655 13.6743C59.086 13.5968 59.0996 13.5178 59.1064 13.438C59.1652 12.7799 58.78 12.0127 57.9298 11.0922C57.1048 10.1999 56.2032 9.70304 55.2489 9.61622C54.4243 9.5464 53.6025 9.7912 52.9488 10.3014C52.8717 10.3605 52.7973 10.4232 52.7255 10.4893C52.2534 10.9177 51.6836 11.5254 51.4452 12.433C51.2068 13.3406 51.3314 14.3738 51.8089 15.6465C52.6383 17.8655 52.8325 19.0684 51.7055 19.9339C51.5239 20.0709 51.3308 20.1917 51.1282 20.2949C49.7413 21.0087 46.9725 21.6915 45.1429 22.147C44.4616 22.3152 43.9755 22.436 43.6275 22.5332C43.0004 20.6015 42.3836 18.6235 42.3366 18.323C42.2986 17.8619 41.8309 17.2074 41.2429 16.7936C40.655 16.3797 39.9989 16.2505 39.3818 16.428C38.2624 16.7388 36.6715 17.0073 36.6566 17.0096C36.5613 17.0251 36.4713 17.0641 36.3946 17.123L36.3992 17.1195Z" fill="black"/>
<path id="Vector_15" d="M32.3763 49.9861C32.3125 50.0271 32.2354 50.0417 32.1613 50.0269C32.0871 50.0121 32.0218 49.9691 31.9791 49.9068L30.7447 48.0793C30.7165 48.0374 30.6997 47.9888 30.6961 47.9383C30.6924 47.8878 30.7021 47.8372 30.724 47.7915C31.0612 47.0916 31.7894 45.7091 32.0119 45.2857C31.779 44.59 32.2743 43.2345 33.0497 41.2961C33.3711 40.4894 33.8102 39.3838 33.7667 39.15C33.4862 38.3373 34.1123 36.5538 34.5163 36.0916C34.7476 35.828 35.0397 34.8755 35.1819 34.2998C34.9206 32.6123 35.5227 31.8553 35.7237 31.6552C35.9271 31.1496 36.0159 29.5519 36.025 28.6209C35.6631 24.9947 35.7972 21.3341 36.4235 17.7399C36.4382 17.6683 36.4793 17.6047 36.5386 17.5618C36.586 17.5252 36.6435 17.504 36.7033 17.5012C38.6769 17.4053 39.177 17.2957 39.3 17.2524C39.5034 17.1884 39.7195 17.1774 39.9279 17.2204C40.1363 17.2634 40.3299 17.3591 40.4904 17.4983C40.9895 17.909 41.2178 18.6082 41.1092 19.4216C40.9634 20.4832 42.2313 22.6655 42.7293 23.4193C42.7703 23.4806 42.7864 23.5554 42.7741 23.6283C42.7619 23.7013 42.7223 23.767 42.6634 23.812C42.6311 23.8366 42.5941 23.8544 42.5547 23.8643C41.9642 23.9952 41.4071 24.2479 40.9192 24.6062C38.4918 26.4704 40.3357 30.6016 40.3542 30.6424C40.3703 30.6774 40.3793 30.7154 40.3805 30.754C40.3818 30.7926 40.3753 30.8311 40.3615 30.8673C40.3483 30.9195 38.2929 36.2522 38.166 36.6205C38.039 36.9888 35.8724 41.3367 35.6261 41.8296C35.6102 41.8597 35.5897 41.8871 35.5654 41.9109C34.9344 42.5035 33.7905 45.5006 33.4043 46.6059C33.3923 46.6393 33.3744 46.6703 33.3516 46.6976C31.8284 48.4949 32.4399 49.5401 32.4663 49.584C32.5043 49.6454 32.5179 49.7188 32.5046 49.7899C32.4913 49.8611 32.4519 49.9248 32.3942 49.9687L32.3763 49.9861Z" fill="#0C1011"/>
<path id="Vector_16" d="M36.7156 17.7916C37.7759 17.7365 39.0311 17.66 39.3954 17.5266C40.0644 17.2946 41.0102 17.9734 40.8219 19.3841C40.6335 20.7948 42.4965 23.5868 42.4965 23.5868C41.8668 23.7252 41.2727 23.9945 40.7529 24.3769C38.1003 26.4049 40.0971 30.7591 40.0971 30.7591C40.0971 30.7591 38.0227 36.1485 37.8921 36.5287C37.7614 36.909 35.3646 41.6989 35.3646 41.6989C34.5437 42.4702 33.1269 46.5094 33.1269 46.5094C31.4246 48.5211 32.2185 49.7392 32.2185 49.7392L30.9841 47.9116C31.3847 47.0789 32.333 45.2914 32.333 45.2914C31.7432 44.3392 34.2721 39.7259 34.0426 39.0586C33.8132 38.3914 34.3564 36.7082 34.7322 36.2787C35.1081 35.8492 35.4733 34.3099 35.4733 34.3099C35.1652 32.437 35.9651 31.8227 35.9651 31.8227C36.2947 31.1488 36.3153 28.6008 36.3153 28.6008C35.9531 24.9985 36.0878 21.3615 36.7156 17.7916ZM36.362 17.3312C36.2479 17.4178 36.1695 17.5431 36.1418 17.6833C35.5113 21.2999 35.3756 24.9833 35.7384 28.6322C35.7278 29.7143 35.6267 31.0471 35.4792 31.4915C35.1985 31.7912 34.643 32.6185 34.886 34.287C34.7225 34.9451 34.4578 35.7228 34.2931 35.9078C33.8401 36.4259 33.1931 38.2492 33.4733 39.205C33.4521 39.4957 33.0619 40.476 32.7793 41.2016C32.0097 43.1355 31.5251 44.4572 31.7017 45.2639C31.4323 45.7745 30.7825 47.0126 30.4633 47.6786C30.419 47.7703 30.3995 47.8718 30.4067 47.9732C30.4139 48.0746 30.4476 48.1721 30.5045 48.2562L31.738 50.0826L32.2225 49.7563L32.7114 49.4357C32.7144 49.4407 32.7179 49.4453 32.722 49.4495C32.6954 49.415 32.2135 48.5099 33.577 46.8993C33.6237 46.845 33.6599 46.7825 33.6835 46.715C34.2517 45.0931 35.2743 42.6007 35.7677 42.1377C35.8181 42.0902 35.8597 42.0341 35.8904 41.9721C36.4565 40.8403 38.3126 37.1169 38.4443 36.7285C38.5492 36.4248 40.0673 32.4743 40.6436 30.9778C40.6712 30.9055 40.6842 30.8285 40.6817 30.7513C40.6791 30.674 40.6612 30.5981 40.629 30.528C40.32 29.7968 40.1108 29.027 40.007 28.2393C39.8198 26.6889 40.1846 25.5416 41.1012 24.8376C41.5563 24.5049 42.0756 24.2706 42.6257 24.1498C42.7044 24.1298 42.7783 24.0942 42.843 24.0452C42.9608 23.9551 43.04 23.8237 43.0645 23.6778C43.089 23.5319 43.057 23.3824 42.9749 23.2597C42.3025 22.2501 41.2756 20.3291 41.395 19.458C41.5172 18.5427 41.2531 17.7465 40.6704 17.2701C40.472 17.1008 40.2334 16.9849 39.9773 16.9336C39.7211 16.8822 39.4558 16.897 39.2063 16.9765C39.1443 16.9986 38.7309 17.1111 36.6904 17.2108C36.5713 17.2165 36.4567 17.2585 36.362 17.3312Z" fill="black"/>
<path id="Vector_17" d="M62.0522 22.2822C61.1413 22.9817 55.9025 23.1975 54.8594 23.232C54.794 23.2338 54.73 23.2142 54.677 23.1763C54.5931 23.1126 53.8495 22.5439 53.8416 21.8492C53.844 21.6798 53.8876 21.5133 53.9686 21.3641C54.0496 21.2149 54.1656 21.0874 54.3066 20.9926C54.5971 20.7854 54.923 20.6331 55.2681 20.5433C55.6834 19.8877 58.106 15.9854 59.026 13.3835C59.045 13.3305 59.0789 13.2841 59.1237 13.2499C59.155 13.2257 59.1909 13.2081 59.2292 13.1982C59.5355 13.1184 60.105 13.111 60.4418 13.5018L60.5343 13.4308C60.5835 13.3933 60.6433 13.3724 60.705 13.3711C60.7667 13.3697 60.8272 13.388 60.8777 13.4233C62.7979 14.7607 62.8506 15.0184 62.867 15.1211C62.8805 15.1904 62.886 15.261 62.8835 15.3316C63.0455 15.3475 63.2014 15.4006 63.339 15.4868C63.6356 15.6744 63.8202 16.001 63.8885 16.4608C64.0225 17.3532 62.8875 19.8404 61.81 20.7081C62.0734 20.9028 62.3353 21.1719 62.3874 21.496C62.4078 21.6321 62.3927 21.7713 62.3437 21.9002C62.2947 22.0292 62.2134 22.1435 62.1076 22.2323C62.0901 22.2499 62.0716 22.2666 62.0522 22.2822Z" fill="#0C1011"/>
<path id="Vector_18" d="M59.3047 13.4776C59.3047 13.4776 60.1299 13.2647 60.3593 13.932L60.7154 13.6586C60.7154 13.6586 62.5386 14.9296 62.5857 15.1752C62.6108 15.3344 62.5886 15.4977 62.522 15.6449C62.522 15.6449 63.437 15.3648 63.6048 16.5021C63.7424 17.4375 62.4383 19.8624 61.5979 20.5078C61.4211 20.6436 61.2641 20.7001 61.1522 20.6452C61.2723 20.7011 62.6139 21.3522 61.9164 22.016L61.8782 22.0453C60.9962 22.7226 54.8563 22.9352 54.8563 22.9352C54.8563 22.9352 53.5223 21.9471 54.4863 21.2067C54.7802 21.0036 55.1098 20.8579 55.4576 20.7773C55.4576 20.7773 58.2799 16.3595 59.3043 13.4651M58.9508 13.0048C58.8607 13.073 58.793 13.1664 58.7563 13.2731C57.8819 15.7431 55.6197 19.4234 55.0828 20.2821C54.742 20.3812 54.4206 20.5382 54.1328 20.7464C53.9556 20.8685 53.8104 21.0314 53.7095 21.2213C53.6087 21.4112 53.5552 21.6225 53.5536 21.8371C53.5552 21.9804 53.6052 22.7323 54.504 23.3978C54.6096 23.4755 54.7385 23.5151 54.8698 23.5103C54.8843 23.5101 56.4374 23.4554 58.0773 23.3175C61.1472 23.0604 61.9071 22.7457 62.2273 22.4998L62.3163 22.4315C62.4553 22.3091 62.5616 22.1541 62.6257 21.9806C62.6898 21.8071 62.7097 21.6206 62.6834 21.4379C62.6235 21.1475 62.4732 20.8839 62.2538 20.6846C63.1577 19.7343 64.3468 17.5186 64.1839 16.4068C64.083 15.725 63.7583 15.3907 63.5027 15.2302C63.3977 15.1646 63.284 15.114 63.1649 15.0799L63.1609 15.0555C63.1196 14.8438 63.068 14.578 61.0529 13.1744C60.9697 13.1162 60.8726 13.081 60.7713 13.0721C60.67 13.0632 60.568 13.081 60.4755 13.1237C60.285 12.9847 60.0615 12.8973 59.8268 12.87C59.606 12.843 59.3821 12.8552 59.1653 12.906C59.0887 12.9258 59.017 12.961 58.9544 13.0094L58.9508 13.0048Z" fill="black"/>
<path id="Vector_19" d="M45.4614 33.3307C45.3454 33.4202 45.2056 33.4733 45.0596 33.4835C44.9137 33.4937 44.7682 33.4604 44.6415 33.3879C44.5149 33.3153 44.4128 33.2068 44.3482 33.076C44.2835 32.9452 44.2593 32.7981 44.2785 32.6532C44.2977 32.5082 44.3595 32.3721 44.456 32.2619C44.5526 32.1518 44.6795 32.0726 44.8209 32.0343C44.9622 31.9961 45.1115 32.0006 45.2499 32.0471C45.3884 32.0937 45.5097 32.1803 45.5985 32.296C45.7171 32.451 45.7692 32.6468 45.7435 32.8407C45.7178 33.0346 45.6164 33.2107 45.4614 33.3307Z" fill="#97D5E0"/>
<path id="Vector_20" d="M44.741 32.3935C44.8114 32.3394 44.8962 32.3073 44.9846 32.3013C45.0731 32.2953 45.1612 32.3156 45.2379 32.3597C45.3146 32.4037 45.3764 32.4696 45.4155 32.5489C45.4545 32.6282 45.4691 32.7174 45.4574 32.8052C45.4457 32.893 45.4082 32.9755 45.3496 33.0422C45.2911 33.1089 45.2141 33.1569 45.1284 33.18C45.0428 33.2032 44.9523 33.2004 44.8684 33.1722C44.7845 33.1439 44.711 33.0914 44.6571 33.0213C44.5849 32.9273 44.5532 32.8084 44.5689 32.6906C44.5847 32.5729 44.6465 32.466 44.741 32.3935ZM44.3874 31.9331C44.2253 32.0572 44.1036 32.2264 44.0375 32.4193C43.9714 32.6122 43.964 32.82 44.0162 33.0166C44.0684 33.2132 44.1778 33.3896 44.3307 33.5236C44.4836 33.6576 44.6731 33.7431 44.8751 33.7693C45.0771 33.7955 45.2826 33.7612 45.4656 33.6708C45.6486 33.5804 45.8009 33.4379 45.9031 33.2614C46.0054 33.0849 46.0531 32.8822 46.0402 32.6791C46.0272 32.476 45.9542 32.2815 45.8304 32.1203C45.6644 31.9047 45.4193 31.764 45.1489 31.7289C44.8785 31.6938 44.6047 31.7673 44.3874 31.9331Z" fill="black"/>
<path id="Vector_21" d="M43.5128 28.2204C43.3442 28.3502 43.141 28.4274 42.929 28.442C42.717 28.4567 42.5057 28.4082 42.3217 28.3028C42.1378 28.1973 41.9896 28.0396 41.8958 27.8496C41.802 27.6596 41.7669 27.4458 41.7948 27.2353C41.8228 27.0249 41.9126 26.8271 42.0528 26.6671C42.1931 26.5072 42.3776 26.3922 42.5828 26.3366C42.7881 26.2811 43.005 26.2876 43.2061 26.3553C43.4072 26.423 43.5834 26.5488 43.7124 26.7168C43.8849 26.942 43.9607 27.2267 43.9233 27.5085C43.8859 27.7903 43.7382 28.0462 43.5128 28.2204Z" fill="#97D5E0"/>
<path id="Vector_22" d="M42.3852 26.7518C42.5082 26.6573 42.6564 26.6013 42.8109 26.5908C42.9654 26.5803 43.1194 26.6158 43.2533 26.6928C43.3873 26.7698 43.4952 26.8848 43.5634 27.0233C43.6317 27.1619 43.6572 27.3177 43.6367 27.4711C43.6162 27.6244 43.5507 27.7685 43.4484 27.885C43.3461 28.0016 43.2117 28.0853 43.062 28.1257C42.9124 28.1661 42.7543 28.1614 42.6078 28.112C42.4613 28.0627 42.3329 27.971 42.2388 27.8485C42.1762 27.7673 42.1303 27.6744 42.1038 27.5753C42.0772 27.4761 42.0706 27.3727 42.0842 27.2708C42.0978 27.1689 42.1314 27.0706 42.183 26.9815C42.2347 26.8924 42.3034 26.8144 42.3852 26.7518ZM42.0317 26.2914C41.817 26.4559 41.6558 26.6801 41.5683 26.9357C41.4808 27.1912 41.4711 27.4666 41.5403 27.727C41.6095 27.9874 41.7546 28.2211 41.9572 28.3985C42.1598 28.576 42.4107 28.6892 42.6784 28.7239C42.946 28.7585 43.2182 28.7131 43.4606 28.5933C43.7031 28.4735 43.9048 28.2847 44.0402 28.0508C44.1757 27.817 44.2389 27.5485 44.2217 27.2794C44.2045 27.0103 44.1079 26.7527 43.9439 26.5392C43.7239 26.2534 43.3991 26.0668 43.0407 26.0204C42.6823 25.974 42.3195 26.0714 42.0317 26.2914Z" fill="black"/>
<path id="Vector_23" d="M42.8161 37.6123C42.7 37.7011 42.5604 37.7536 42.4148 37.7632C42.2693 37.7729 42.1243 37.7392 41.9982 37.6665C41.8721 37.5938 41.7706 37.4853 41.7065 37.3547C41.6424 37.2241 41.6185 37.0774 41.638 36.9329C41.6574 36.7884 41.7192 36.6528 41.8157 36.5431C41.9121 36.4334 42.0388 36.3545 42.1798 36.3165C42.3207 36.2786 42.4696 36.2831 42.6076 36.3296C42.7456 36.3761 42.8666 36.4625 42.9552 36.5779C43.0141 36.6546 43.0572 36.7422 43.0821 36.8358C43.107 36.9293 43.1132 37.0269 43.1003 37.123C43.0874 37.2191 43.0556 37.3118 43.0068 37.3957C42.9581 37.4797 42.8932 37.5533 42.8161 37.6123Z" fill="#97D5E0"/>
<path id="Vector_24" d="M42.0966 36.6745C42.1667 36.6206 42.2513 36.5887 42.3394 36.5827C42.4276 36.5767 42.5155 36.5969 42.5919 36.6408C42.6684 36.6848 42.7299 36.7504 42.7689 36.8295C42.8078 36.9085 42.8224 36.9974 42.8107 37.085C42.799 37.1725 42.7616 37.2547 42.7032 37.3212C42.6449 37.3877 42.5681 37.4355 42.4828 37.4586C42.3974 37.4816 42.3072 37.4789 42.2236 37.4507C42.1399 37.4226 42.0667 37.3702 42.013 37.3004C41.9772 37.254 41.9509 37.2011 41.9357 37.1445C41.9206 37.0879 41.9167 37.0288 41.9245 36.9706C41.9323 36.9125 41.9515 36.8564 41.981 36.8055C42.0105 36.7547 42.0498 36.7102 42.0966 36.6745ZM41.743 36.2142C41.5814 36.3383 41.46 36.5074 41.3943 36.7C41.3286 36.8926 41.3214 37.1001 41.3737 37.2963C41.426 37.4925 41.5355 37.6685 41.6882 37.8021C41.841 37.9357 42.0302 38.021 42.2318 38.047C42.4335 38.073 42.6387 38.0387 42.8213 37.9483C43.0039 37.858 43.1559 37.7157 43.2579 37.5394C43.36 37.3631 43.4075 37.1608 43.3946 36.958C43.3816 36.7553 43.3087 36.5612 43.1851 36.4002C43.0192 36.1848 42.7742 36.0442 42.5039 36.0093C42.2335 35.9744 41.9599 36.0481 41.743 36.2142Z" fill="black"/>
<path id="Vector_25" d="M40.1728 41.8913C40.0568 41.9807 39.9169 42.0339 39.7709 42.0441C39.6249 42.0542 39.4793 42.0209 39.3526 41.9482C39.226 41.8756 39.1239 41.767 39.0594 41.6361C38.9948 41.5052 38.9707 41.3579 38.99 41.213C39.0094 41.068 39.0713 40.9319 39.168 40.8218C39.2648 40.7117 39.3919 40.6327 39.5333 40.5946C39.6748 40.5566 39.8242 40.5613 39.9626 40.6081C40.101 40.6549 40.2222 40.7418 40.3108 40.8577C40.4289 41.0127 40.4807 41.2084 40.4548 41.402C40.429 41.5956 40.3276 41.7714 40.1728 41.8913Z" fill="#97D5E0"/>
<path id="Vector_26" d="M39.4529 40.954C39.5233 40.8999 39.6081 40.8679 39.6965 40.8618C39.785 40.8558 39.8732 40.8761 39.9498 40.9202C40.0265 40.9643 40.0883 41.0301 40.1274 41.1095C40.1665 41.1888 40.181 41.278 40.1693 41.3658C40.1576 41.4536 40.1201 41.5361 40.0615 41.6028C40.003 41.6695 39.926 41.7174 39.8403 41.7406C39.7547 41.7637 39.6642 41.761 39.5803 41.7327C39.4964 41.7045 39.4229 41.652 39.3691 41.5819C39.2969 41.4879 39.2651 41.3689 39.2809 41.2512C39.2966 41.1334 39.3584 41.0265 39.4529 40.954ZM39.0993 40.4937C38.9373 40.6178 38.8155 40.787 38.7494 40.9798C38.6833 41.1727 38.6759 41.3806 38.7281 41.5771C38.7803 41.7737 38.8898 41.9502 39.0426 42.0841C39.1955 42.2181 39.385 42.3036 39.587 42.3298C39.789 42.356 39.9945 42.3218 40.1775 42.2314C40.3605 42.141 40.5128 41.9985 40.615 41.8219C40.7173 41.6454 40.765 41.4428 40.7521 41.2396C40.7391 41.0365 40.6661 40.8421 40.5423 40.6809C40.3763 40.4653 40.1312 40.3245 39.8608 40.2895C39.5904 40.2544 39.3166 40.3278 39.0993 40.4937Z" fill="black"/>
<path id="Vector_27" d="M37.7738 46.1231C37.6578 46.2122 37.5183 46.265 37.3726 46.2749C37.227 46.2848 37.0819 46.2513 36.9557 46.1788C36.8295 46.1062 36.7277 45.9978 36.6634 45.8673C36.5991 45.7367 36.5751 45.5899 36.5944 45.4453C36.6137 45.3008 36.6754 45.165 36.7718 45.0552C36.8682 44.9454 36.9949 44.8664 37.136 44.8284C37.277 44.7903 37.4259 44.7948 37.564 44.8413C37.7021 44.8878 37.8231 44.9742 37.9117 45.0896C38.0302 45.2445 38.0822 45.4402 38.0563 45.6339C38.0305 45.8276 37.9289 46.0036 37.7738 46.1231Z" fill="#97D5E0"/>
<path id="Vector_28" d="M37.0546 45.1862C37.1249 45.1326 37.2094 45.1009 37.2976 45.0952C37.3857 45.0894 37.4734 45.1099 37.5497 45.154C37.626 45.1981 37.6874 45.2638 37.7261 45.3429C37.7649 45.422 37.7793 45.5108 37.7674 45.5983C37.7556 45.6857 37.7181 45.7678 37.6597 45.8342C37.6013 45.9006 37.5246 45.9483 37.4393 45.9713C37.3539 45.9942 37.2638 45.9914 37.1802 45.9633C37.0967 45.9351 37.0235 45.8828 36.9699 45.813C36.9342 45.7665 36.908 45.7134 36.8929 45.6567C36.8779 45.6 36.8742 45.5408 36.882 45.4826C36.8899 45.4244 36.9092 45.3682 36.9388 45.3174C36.9684 45.2665 37.0077 45.222 37.0546 45.1862ZM36.701 44.7259C36.5394 44.85 36.418 45.0191 36.3523 45.2117C36.2866 45.4043 36.2794 45.6118 36.3317 45.808C36.3841 46.0042 36.4935 46.1802 36.6463 46.3139C36.799 46.4475 36.9882 46.5327 37.1899 46.5587C37.3915 46.5847 37.5967 46.5504 37.7793 46.46C37.9619 46.3697 38.1139 46.2274 38.2159 46.0511C38.318 45.8748 38.3655 45.6725 38.3526 45.4698C38.3396 45.267 38.2667 45.0729 38.1431 44.9119C37.9772 44.6965 37.7322 44.5559 37.4619 44.521C37.1915 44.4861 36.9179 44.5598 36.701 44.7259Z" fill="black"/>
<path id="Vector_29" d="M47.3729 36.9239C47.257 37.0129 47.1174 37.0657 46.9718 37.0756C46.8261 37.0855 46.681 37.0521 46.5548 36.9796C46.4286 36.907 46.3269 36.7986 46.2626 36.668C46.1983 36.5375 46.1742 36.3907 46.1935 36.2461C46.2128 36.1016 46.2746 35.9658 46.371 35.856C46.4674 35.7462 46.5941 35.6672 46.7351 35.6291C46.8761 35.5911 47.025 35.5956 47.1631 35.6421C47.3012 35.6886 47.4222 35.775 47.5108 35.8904C47.6293 36.0453 47.6813 36.241 47.6554 36.4347C47.6296 36.6284 47.528 36.8043 47.3729 36.9239Z" fill="#97D5E0"/>
<path id="Vector_30" d="M46.6537 35.987C46.724 35.9334 46.8086 35.9017 46.8967 35.896C46.9848 35.8902 47.0726 35.9107 47.1488 35.9548C47.2251 35.9989 47.2865 36.0646 47.3252 36.1437C47.364 36.2228 47.3784 36.3116 47.3666 36.3991C47.3547 36.4865 47.3173 36.5686 47.2588 36.635C47.2004 36.7014 47.1237 36.7491 47.0384 36.772C46.953 36.795 46.8629 36.7922 46.7794 36.7641C46.6958 36.7359 46.6226 36.6836 46.569 36.6138C46.5333 36.5673 46.5071 36.5141 46.4921 36.4575C46.477 36.4008 46.4733 36.3416 46.4812 36.2834C46.489 36.2252 46.5083 36.169 46.5379 36.1182C46.5675 36.0673 46.6069 36.0227 46.6537 35.987ZM46.3002 35.5267C46.1385 35.6508 46.0172 35.8199 45.9514 36.0125C45.8857 36.2051 45.8785 36.4126 45.9309 36.6088C45.9832 36.805 46.0926 36.981 46.2454 37.1146C46.3981 37.2483 46.5873 37.3335 46.789 37.3595C46.9907 37.3855 47.1958 37.3512 47.3784 37.2608C47.5611 37.1705 47.713 37.0282 47.8151 36.8519C47.9171 36.6756 47.9646 36.4733 47.9517 36.2705C47.9387 36.0678 47.8659 35.8737 47.7423 35.7127C47.5763 35.4973 47.3313 35.3567 47.061 35.3218C46.7907 35.2869 46.517 35.3606 46.3002 35.5267Z" fill="black"/>
<path id="Vector_31" d="M51.0047 35.8784C51.0636 35.955 51.137 36.0193 51.2208 36.0674C51.3046 36.1156 51.3972 36.1468 51.4932 36.1592C51.5893 36.1716 51.6869 36.1649 51.7805 36.1396C51.8741 36.1144 51.9619 36.0709 52.0389 36.0118C52.1159 35.9527 52.1805 35.8791 52.2291 35.7952C52.2776 35.7112 52.3092 35.6186 52.3221 35.5227C52.3349 35.4267 52.3286 35.3292 52.3037 35.2358C52.2788 35.1424 52.2357 35.0549 52.1769 34.9783C52.118 34.9016 52.0446 34.8374 51.9608 34.7892C51.877 34.7411 51.7844 34.7099 51.6884 34.6975C51.5923 34.6851 51.4947 34.6917 51.4011 34.717C51.3075 34.7423 51.2197 34.7857 51.1427 34.8449C51.0657 34.904 51.0011 34.9776 50.9525 35.0615C50.904 35.1454 50.8723 35.238 50.8595 35.334C50.8467 35.43 50.853 35.5274 50.8779 35.6209C50.9028 35.7143 50.9459 35.8018 51.0047 35.8784Z" fill="#97D5E0"/>
<path id="Vector_32" d="M51.3158 35.0788C51.3861 35.0252 51.4707 34.9935 51.5588 34.9878C51.6469 34.982 51.7347 35.0025 51.8109 35.0466C51.8872 35.0907 51.9486 35.1564 51.9874 35.2355C52.0261 35.3145 52.0405 35.4034 52.0287 35.4909C52.0168 35.5783 51.9794 35.6604 51.921 35.7268C51.8625 35.7932 51.7858 35.8409 51.7005 35.8638C51.6152 35.8868 51.525 35.884 51.4415 35.8559C51.3579 35.8277 51.2847 35.7754 51.2311 35.7056C51.1952 35.6591 51.1689 35.606 51.1537 35.5493C51.1386 35.4926 51.1348 35.4334 51.1427 35.3751C51.1505 35.3168 51.1699 35.2606 51.1996 35.2098C51.2293 35.1589 51.2688 35.1144 51.3158 35.0788ZM50.9623 34.6185C50.8006 34.7426 50.6793 34.9117 50.6135 35.1043C50.5478 35.2969 50.5406 35.5044 50.593 35.7006C50.6453 35.8968 50.7547 36.0728 50.9075 36.2064C51.0602 36.34 51.2494 36.4253 51.4511 36.4513C51.6528 36.4773 51.8579 36.443 52.0405 36.3526C52.2232 36.2623 52.3751 36.1199 52.4772 35.9437C52.5792 35.7674 52.6268 35.5651 52.6138 35.3623C52.6008 35.1596 52.528 34.9655 52.4044 34.8045C52.2384 34.5891 51.9934 34.4485 51.7231 34.4136C51.4528 34.3787 51.1792 34.4524 50.9623 34.6185Z" fill="black"/>
<path id="Vector_33" d="M50.7749 32.3444C50.6589 32.4338 50.5191 32.487 50.3731 32.4972C50.2272 32.5074 50.0817 32.4741 49.955 32.4015C49.8284 32.329 49.7263 32.2205 49.6616 32.0897C49.597 31.9589 49.5728 31.8117 49.592 31.6668C49.6112 31.5219 49.673 31.3858 49.7695 31.2756C49.866 31.1655 49.993 31.0863 50.1343 31.048C50.2757 31.0098 50.425 31.0142 50.5634 31.0608C50.7018 31.1074 50.8232 31.194 50.912 31.3097C51.0309 31.4645 51.0833 31.6604 51.0576 31.8544C51.0319 32.0484 50.9302 32.2246 50.7749 32.3444Z" fill="#97D5E0"/>
<path id="Vector_34" d="M50.0549 31.4071C50.1253 31.3527 50.2101 31.3204 50.2987 31.3142C50.3872 31.3079 50.4756 31.3281 50.5524 31.3721C50.6293 31.4161 50.6912 31.482 50.7304 31.5614C50.7696 31.6408 50.7843 31.7301 50.7725 31.818C50.7608 31.9059 50.7232 31.9885 50.6645 32.0553C50.6058 32.122 50.5287 32.17 50.4428 32.193C50.357 32.216 50.2664 32.2131 50.1825 32.1846C50.0985 32.1561 50.0251 32.1033 49.9714 32.033C49.9356 31.9866 49.9093 31.9337 49.8941 31.8771C49.8789 31.8205 49.8751 31.7614 49.8829 31.7032C49.8906 31.6451 49.9098 31.589 49.9394 31.5381C49.9689 31.4873 50.0082 31.4428 50.0549 31.4071ZM49.7014 30.9468C49.5393 31.0709 49.4174 31.2402 49.3514 31.4331C49.2853 31.6261 49.2779 31.834 49.3302 32.0306C49.3825 32.2272 49.4921 32.4037 49.6451 32.5376C49.7981 32.6716 49.9877 32.757 50.1897 32.7831C50.3918 32.8091 50.5974 32.7747 50.7804 32.6841C50.9633 32.5935 51.1155 32.4508 51.2176 32.2741C51.3198 32.0974 51.3672 31.8947 51.354 31.6915C51.3408 31.4883 51.2676 31.2939 51.1435 31.1328C50.9775 30.9174 50.7325 30.7768 50.4622 30.7419C50.1919 30.707 49.9183 30.7807 49.7014 30.9468Z" fill="black"/>
<path id="Vector_35" d="M55.2108 31.2436C55.3296 31.3984 55.5053 31.4994 55.6993 31.5244C55.8932 31.5494 56.0895 31.4964 56.2449 31.3771C56.4004 31.2577 56.5022 31.0817 56.5281 30.8879C56.554 30.6941 56.5018 30.4983 56.3829 30.3435C56.2641 30.1888 56.0883 30.0878 55.8944 30.0627C55.7005 30.0377 55.5042 30.0907 55.3488 30.2101C55.1933 30.3295 55.0915 30.5054 55.0656 30.6992C55.0397 30.8931 55.0919 31.0889 55.2108 31.2436Z" fill="#97D5E0"/>
<path id="Vector_36" d="M55.525 30.4393C55.5952 30.3849 55.68 30.3526 55.7685 30.3463C55.857 30.34 55.9453 30.3601 56.0221 30.404C56.099 30.448 56.161 30.5137 56.2002 30.593C56.2395 30.6723 56.2542 30.7615 56.2427 30.8494C56.2311 30.9373 56.1936 31.0199 56.1351 31.0867C56.0766 31.1536 55.9996 31.2016 55.9139 31.2249C55.8282 31.2481 55.7377 31.2454 55.6537 31.2172C55.5698 31.1889 55.4962 31.1364 55.4423 31.0663C55.3703 30.9724 55.3385 30.8538 55.354 30.7363C55.3695 30.6187 55.431 30.5119 55.525 30.4393ZM55.1714 29.9789C55.0096 30.1032 54.888 30.2725 54.8222 30.4654C54.7564 30.6583 54.7492 30.8661 54.8016 31.0626C54.854 31.259 54.9636 31.4353 55.1166 31.5691C55.2695 31.7029 55.459 31.7883 55.6609 31.8143C55.8629 31.8404 56.0683 31.806 56.2512 31.7155C56.4341 31.625 56.5863 31.4825 56.6885 31.306C56.7907 31.1295 56.8383 30.9269 56.8253 30.7238C56.8123 30.5208 56.7393 30.3264 56.6156 30.1652C56.5334 30.0582 56.4309 29.9685 56.3138 29.9013C56.1968 29.834 56.0675 29.7905 55.9334 29.7732C55.7993 29.7559 55.663 29.7651 55.5323 29.8004C55.4015 29.8357 55.2789 29.8964 55.1714 29.9789Z" fill="black"/>
<path id="Vector_37" d="M61.4917 30.3014C61.3757 30.3909 61.2359 30.444 61.0899 30.4542C60.944 30.4644 60.7985 30.4311 60.6718 30.3586C60.5452 30.286 60.4431 30.1775 60.3784 30.0467C60.3138 29.9159 60.2896 29.7688 60.3088 29.6239C60.328 29.4789 60.3897 29.3428 60.4863 29.2326C60.5828 29.1225 60.7098 29.0433 60.8511 29.0051C60.9925 28.9668 61.1418 28.9713 61.2802 29.0178C61.4186 29.0644 61.5399 29.151 61.6288 29.2667C61.7473 29.4217 61.7995 29.6175 61.7738 29.8114C61.7481 30.0053 61.6467 30.1814 61.4917 30.3014Z" fill="#97D5E0"/>
<path id="Vector_38" d="M60.7717 29.3622C60.8422 29.3081 60.9271 29.276 61.0156 29.27C61.1041 29.264 61.1923 29.2844 61.269 29.3286C61.3457 29.3728 61.4075 29.4387 61.4465 29.5182C61.4855 29.5976 61.4999 29.6869 61.4881 29.7747C61.4762 29.8626 61.4385 29.945 61.3798 30.0117C61.321 30.0783 61.2439 30.1261 61.1581 30.1491C61.0723 30.172 60.9818 30.169 60.8979 30.1405C60.8141 30.112 60.7407 30.0593 60.687 29.9889C60.6153 29.8949 60.5839 29.7761 60.5998 29.6586C60.6157 29.5412 60.6775 29.4346 60.7717 29.3622ZM60.4182 28.9019C60.2561 29.026 60.1342 29.1953 60.0682 29.3882C60.0021 29.5811 59.9947 29.7891 60.047 29.9857C60.0993 30.1823 60.2089 30.3588 60.3619 30.4927C60.5149 30.6266 60.7045 30.7121 60.9065 30.7381C61.1086 30.7642 61.3142 30.7298 61.4972 30.6392C61.6801 30.5486 61.8323 30.4059 61.9344 30.2292C62.0366 30.0525 62.084 29.8497 62.0708 29.6466C62.0576 29.4434 61.9844 29.249 61.8603 29.0879C61.6943 28.8724 61.4493 28.7319 61.179 28.697C60.9087 28.6621 60.6351 28.7358 60.4182 28.9019Z" fill="black"/>
<path id="Vector_39" d="M36.4429 28.3027C36.4015 28.3345 36.3524 28.3546 36.3006 28.361C36.2489 28.3674 36.1965 28.3598 36.1488 28.3391C36.1011 28.3183 36.0599 28.2851 36.0296 28.2429C35.9992 28.2008 35.9808 28.1512 35.9762 28.0994C35.6709 24.6411 35.8222 21.1558 36.4263 17.7331C36.4416 17.6641 36.4815 17.6029 36.5385 17.5609C36.5859 17.5243 36.6435 17.5031 36.7032 17.5002C37.0718 17.4825 37.4104 17.4639 37.7153 17.4421C37.755 17.4395 37.7948 17.445 37.8322 17.4584C37.8696 17.4718 37.9039 17.4927 37.9328 17.5199C37.9617 17.547 37.9848 17.5798 38.0005 17.6163C38.0162 17.6527 38.0242 17.6921 38.0241 17.7318C38.0205 20.9217 37.8567 26.5016 36.7483 27.973C36.6632 28.0871 36.5667 28.1924 36.4605 28.2873L36.4429 28.3027Z" fill="#97D5E0"/>
<path id="Vector_40" d="M36.7153 17.7915C37.0463 17.7751 37.3966 17.7549 37.7381 17.7378C37.7376 20.5704 37.6026 26.3769 36.5289 27.8144C36.4548 27.9135 36.3714 28.0051 36.2797 28.0881C35.9763 24.6535 36.1227 21.1921 36.7153 17.7915ZM36.3617 17.3311C36.2476 17.4177 36.1692 17.543 36.1415 17.6832C35.5334 21.1319 35.3806 24.6434 35.6872 28.1278C35.6966 28.2312 35.7337 28.3301 35.7944 28.4141C35.8552 28.4981 35.9374 28.5642 36.0326 28.6056C36.1278 28.647 36.2324 28.6621 36.3357 28.6494C36.4389 28.6367 36.537 28.5966 36.6197 28.5333L36.6555 28.5057C36.7752 28.3971 36.8846 28.2776 36.9822 28.1487C38.0831 26.6867 38.3133 21.6743 38.3122 17.7269C38.3122 17.6475 38.296 17.5691 38.2645 17.4964C38.233 17.4236 38.1869 17.3582 38.129 17.3041C38.0711 17.2496 38.0025 17.2077 37.9275 17.1809C37.8526 17.1542 37.7729 17.143 37.6933 17.1483C37.3937 17.1698 37.056 17.1895 36.6874 17.2073C36.5689 17.2145 36.4553 17.2577 36.3617 17.3311Z" fill="black"/>
<path id="Vector_41" d="M40.2085 30.8926C40.1434 30.9426 40.0656 30.9734 39.984 30.9814C39.9024 30.9893 39.8202 30.9742 39.747 30.9378L34.6886 28.4189C34.6033 28.3763 34.5345 28.307 34.4927 28.2215C34.4509 28.136 34.4383 28.039 34.4569 27.9454C34.4755 27.8519 34.5243 27.7668 34.5958 27.7033C34.6672 27.6399 34.7575 27.6014 34.8526 27.594L42.8214 26.963C42.931 26.9637 43.0361 27.0054 43.116 27.08C43.1959 27.1546 43.2446 27.2566 43.2525 27.3658C43.2604 27.4749 43.2269 27.5832 43.1587 27.6691C43.0904 27.7551 42.9924 27.8124 42.8842 27.8297L36.4877 28.3399L40.1432 30.1615C40.2462 30.2132 40.3244 30.3036 40.3605 30.413C40.3967 30.5224 40.3879 30.6419 40.3361 30.7452C40.3055 30.8035 40.2618 30.8539 40.2085 30.8926ZM38.5402 35.8512C38.4559 35.917 38.3505 35.9498 38.2439 35.9433C38.1373 35.9368 38.037 35.8915 37.9619 35.816L35.1791 33.0131C35.1162 32.9519 35.0734 32.8731 35.0563 32.787C35.0391 32.7009 35.0484 32.6114 35.083 32.5305C35.1176 32.4495 35.1758 32.3808 35.2501 32.3333C35.3243 32.2858 35.4111 32.2618 35.499 32.2643L41.1028 32.3299C41.2186 32.3312 41.3289 32.3785 41.4095 32.4612C41.4901 32.5439 41.5344 32.6554 41.5326 32.7711C41.5307 32.8867 41.483 32.9971 41.3998 33.078C41.3167 33.1588 41.2049 33.2035 41.0891 33.2022L36.5568 33.1535L38.586 35.1977C38.6672 35.2797 38.7123 35.3906 38.7115 35.5062C38.7106 35.6218 38.6639 35.7325 38.5815 35.814C38.5688 35.8275 38.555 35.8399 38.5402 35.8512ZM39.9224 37.6988C39.871 37.7385 39.8114 37.7663 39.748 37.7802C39.6846 37.7941 39.619 37.7937 39.5558 37.779L35.6608 36.866L36.9748 38.9671C37.0053 39.0158 37.0259 39.07 37.0354 39.1267C37.0448 39.1834 37.043 39.2414 37.0301 39.2975C37.0171 39.3536 36.9932 39.4067 36.9597 39.4536C36.9263 39.5006 36.8839 39.5405 36.8351 39.5712C36.7862 39.6019 36.7318 39.6226 36.675 39.6323C36.6182 39.6421 36.5601 39.6405 36.504 39.6278C36.4479 39.6151 36.3949 39.5914 36.3481 39.5582C36.3012 39.525 36.2614 39.4828 36.2309 39.4342L34.3584 36.4336C34.3127 36.3604 34.2898 36.2752 34.2927 36.1888C34.2956 36.1024 34.3241 36.0188 34.3746 35.9484C34.4251 35.878 34.4954 35.8242 34.5765 35.7936C34.6575 35.7631 34.7457 35.7573 34.8299 35.7769L39.7593 36.9312C39.8393 36.9502 39.9123 36.9914 39.9698 37.0501C40.0272 37.1088 40.0668 37.1826 40.084 37.263C40.1011 37.3433 40.0951 37.427 40.0667 37.5044C40.0383 37.5817 39.9885 37.6495 39.9233 37.7L39.9224 37.6988ZM37.2567 42.1244C37.2082 42.1607 37.1527 42.1866 37.0937 42.2004C37.0347 42.2143 36.9735 42.2157 36.9141 42.2046L34.4326 41.7922L35.2112 42.8061C35.2815 42.8977 35.3124 43.0135 35.2971 43.1282C35.2818 43.2429 35.2215 43.347 35.1296 43.4177C35.0376 43.4883 34.9215 43.5197 34.8067 43.5049C34.6919 43.49 34.588 43.4303 34.5176 43.3387L33.062 41.4433C33.0099 41.3735 32.98 41.2898 32.9761 41.2027C32.9723 41.1156 32.9946 41.0293 33.0403 40.9548C33.0859 40.8804 33.1529 40.8212 33.2324 40.785C33.3119 40.7487 33.4003 40.737 33.4863 40.7515L37.0715 41.3519C37.1279 41.3615 37.1819 41.3821 37.2304 41.4126C37.2788 41.443 37.3207 41.4828 37.3536 41.5295C37.3866 41.5762 37.41 41.629 37.4225 41.6848C37.435 41.7407 37.4364 41.7985 37.4265 41.8549C37.4068 41.9631 37.3459 42.0597 37.2567 42.1244ZM35.5091 45.1131L35.4733 45.1407L31.588 47.5426C31.5389 47.5729 31.4844 47.5934 31.4275 47.6027C31.3706 47.6121 31.3124 47.6101 31.2564 47.597C31.2003 47.5839 31.1475 47.5599 31.1008 47.5263C31.0541 47.4928 31.0146 47.4503 30.9844 47.4015C30.9542 47.3526 30.934 47.2982 30.9248 47.2414C30.9157 47.1846 30.9179 47.1265 30.9313 47.0705C30.9446 47.0144 30.9689 46.9615 31.0027 46.9147C31.0365 46.868 31.0791 46.8283 31.1282 46.7979L35.0135 44.396C35.109 44.3299 35.2267 44.3044 35.3407 44.3249C35.4547 44.3454 35.5556 44.4104 35.6213 44.5055C35.6871 44.6006 35.7122 44.7181 35.6911 44.832C35.6701 44.946 35.6046 45.0471 35.5091 45.1131Z" fill="black"/>
</g>
<defs>
<clipPath id="clip0_1011_1507">
<rect width="74" height="41" fill="white" transform="translate(0 45.0723) rotate(-37.5228)"/>
</clipPath>
</defs>
</svg>
