<svg width="40" height="40" viewBox="0 0 40 40" fill="none" xmlns="http://www.w3.org/2000/svg">
<g id="Vector">
<path d="M31.1561 23.393H20.8317C18.5004 23.393 16.5021 21.4021 16.5021 19.0794V8.95901C16.6686 7.63175 15.6695 6.6363 14.3373 6.80221C5.17855 8.12947 -1.64888 16.7567 0.349395 26.7111C1.51505 33.1815 6.84378 38.3246 13.3382 39.6519C23.163 41.6428 31.9887 34.8406 33.3209 25.7157C33.4874 24.3884 32.4883 23.393 31.1561 23.393Z" fill="white"/>
<path d="M39.9818 17.7521C39.4822 13.2726 37.4839 9.12491 34.1535 5.80676C30.9896 2.65452 26.66 0.497723 22.1639 0C20.9982 0 19.9991 0.995445 19.9991 2.1568V18.4157C19.9991 19.4112 20.8317 20.0748 21.6643 20.0748H37.9835C39.1492 20.0748 40.1483 19.0794 39.9818 17.7521Z" fill="white"/>
</g>
</svg>
