<svg width="48" height="48" viewBox="0 0 48 48" fill="none" xmlns="http://www.w3.org/2000/svg">
<g id="HP NO" clip-path="url(#clip0_5_229)">
<path id="Vector" d="M17 29C16.6022 29 16.2206 28.842 15.9393 28.5607C15.658 28.2794 15.5 27.8978 15.5 27.5V25.5C15.5 25.1022 15.658 24.7206 15.9393 24.4393C16.2206 24.158 16.6022 24 17 24C17.3978 24 17.7794 24.158 18.0607 24.4393C18.342 24.7206 18.5 25.1022 18.5 25.5V27.5C18.5 27.8978 18.342 28.2794 18.0607 28.5607C17.7794 28.842 17.3978 29 17 29Z" fill="white"/>
<path id="Vector_2" d="M31 29C30.6022 29 30.2206 28.842 29.9393 28.5607C29.658 28.2794 29.5 27.8978 29.5 27.5V25.5C29.5 25.1022 29.658 24.7206 29.9393 24.4393C30.2206 24.158 30.6022 24 31 24C31.3978 24 31.7794 24.158 32.0607 24.4393C32.342 24.7206 32.5 25.1022 32.5 25.5V27.5C32.5 27.8978 32.342 28.2794 32.0607 28.5607C31.7794 28.842 31.3978 29 31 29Z" fill="white"/>
<path id="Vector_3" d="M44.2 20.78C44.0734 20.7147 43.9623 20.6231 43.874 20.5113C43.7857 20.3996 43.7223 20.2703 43.6881 20.1321C43.6538 19.9938 43.6494 19.8499 43.6753 19.7098C43.7011 19.5698 43.7566 19.4369 43.838 19.32C45.2452 17.3242 46.0004 14.942 46 12.5C45.9963 9.18593 44.6781 6.00866 42.3347 3.66526C39.9913 1.32186 36.8141 0.00370554 33.5 0L14.5 0C11.1859 0.00370554 8.00865 1.32186 5.66525 3.66526C3.32185 6.00866 2.0037 9.18593 1.99999 12.5C1.98288 14.9421 2.73049 17.3283 4.13799 19.324C4.21987 19.4407 4.27585 19.5735 4.30219 19.7136C4.32853 19.8537 4.32461 19.9978 4.29071 20.1362C4.25681 20.2747 4.1937 20.4043 4.10562 20.5163C4.01754 20.6284 3.90651 20.7203 3.77999 20.786C2.42672 21.484 1.33795 22.6042 0.678754 23.9768C0.0195578 25.3494 -0.174108 26.8995 0.127121 28.392C0.42835 29.8846 1.20805 31.2383 2.34799 32.2478C3.48793 33.2572 4.92594 33.8675 6.44399 33.986C7.34535 37.9687 9.5741 41.5265 12.7643 44.0754C15.9545 46.6243 19.9166 48.0127 24 48.0127C28.0834 48.0127 32.0455 46.6243 35.2357 44.0754C38.4259 41.5265 40.6546 37.9687 41.556 33.986C43.0731 33.8653 44.5096 33.2534 45.6478 32.2431C46.786 31.2327 47.5639 29.879 47.8637 28.3869C48.1634 26.8948 47.9688 25.3456 47.3091 23.974C46.6495 22.6025 45.5608 21.4833 44.208 20.786L44.2 20.78ZM5.99999 29C5.99999 29.0929 5.97414 29.1839 5.92532 29.2629C5.8765 29.3419 5.80665 29.4057 5.7236 29.4472C5.64055 29.4887 5.54757 29.5063 5.45509 29.498C5.36261 29.4896 5.27428 29.4557 5.19999 29.4C4.82741 29.1206 4.525 28.7582 4.31671 28.3416C4.10843 27.9251 3.99999 27.4657 3.99999 27C3.99999 26.5343 4.10843 26.0749 4.31671 25.6584C4.525 25.2418 4.82741 24.8794 5.19999 24.6C5.27428 24.5443 5.36261 24.5104 5.45509 24.502C5.54757 24.4937 5.64055 24.5113 5.7236 24.5528C5.80665 24.5943 5.8765 24.6581 5.92532 24.7371C5.97414 24.8161 5.99999 24.9071 5.99999 25V29ZM38 30C38 33.713 36.525 37.274 33.8995 39.8995C31.274 42.525 27.713 44 24 44C20.287 44 16.726 42.525 14.1005 39.8995C11.475 37.274 9.99999 33.713 9.99999 30V23C9.99999 22.7348 10.1054 22.4804 10.2929 22.2929C10.4804 22.1054 10.7348 22 11 22H37C37.2652 22 37.5196 22.1054 37.7071 22.2929C37.8946 22.4804 38 22.7348 38 23V30ZM41.18 20H40.122C39.9207 20.0001 39.724 19.9395 39.5577 19.826C39.3914 19.7125 39.2633 19.5515 39.19 19.364C38.8601 18.521 38.2839 17.7968 37.5366 17.286C36.7892 16.7751 35.9053 16.5012 35 16.5H13C12.0946 16.501 11.2106 16.7747 10.4632 17.2856C9.71576 17.7965 9.13965 18.5208 8.80999 19.364C8.73672 19.5515 8.60855 19.7125 8.44226 19.826C8.27597 19.9395 8.07931 20.0001 7.87799 20H6.81999C6.66222 20.0001 6.50667 19.9629 6.36604 19.8913C6.22541 19.8198 6.1037 19.716 6.01086 19.5885C5.91802 19.4609 5.85667 19.3132 5.83184 19.1574C5.80701 19.0016 5.8194 18.8421 5.86799 18.692C6.35706 17.1849 7.31029 15.871 8.59131 14.9384C9.87233 14.0059 11.4155 13.5024 13 13.5H35C36.5852 13.5031 38.1288 14.0078 39.4096 14.9419C40.6904 15.876 41.6427 17.1915 42.13 18.7C42.177 18.8495 42.1882 19.0079 42.1628 19.1625C42.1373 19.3171 42.0759 19.4635 41.9835 19.59C41.891 19.7165 41.7701 19.8195 41.6306 19.8907C41.491 19.962 41.3367 19.9994 41.18 20ZM42.8 29.4C42.7257 29.4557 42.6374 29.4896 42.5449 29.498C42.4524 29.5063 42.3594 29.4887 42.2764 29.4472C42.1933 29.4057 42.1235 29.3419 42.0747 29.2629C42.0259 29.1839 42 29.0929 42 29V25C42 24.9071 42.0259 24.8161 42.0747 24.7371C42.1235 24.6581 42.1933 24.5943 42.2764 24.5528C42.3594 24.5113 42.4524 24.4937 42.5449 24.502C42.6374 24.5104 42.7257 24.5443 42.8 24.6C43.1726 24.8794 43.475 25.2418 43.6833 25.6584C43.8916 26.0749 44 26.5343 44 27C44 27.4657 43.8916 27.9251 43.6833 28.3416C43.475 28.7582 43.1726 29.1206 42.8 29.4Z" fill="white"/>
<path id="Vector_4" d="M34.842 31.752C34.787 31.537 34.662 31.3464 34.4867 31.2103C34.3115 31.0742 34.0959 31.0002 33.874 31H29.916C29.6796 31 29.4508 31.0838 29.2703 31.2365C29.0898 31.3892 28.9692 31.6009 28.93 31.834C28.733 32.999 28.1298 34.0566 27.2273 34.8192C26.3249 35.5819 25.1815 36.0003 24 36.0003C22.8185 36.0003 21.6751 35.5819 20.7727 34.8192C19.8702 34.0566 19.267 32.999 19.07 31.834C19.0308 31.6009 18.9102 31.3892 18.7297 31.2365C18.5492 31.0838 18.3204 31 18.084 31H14.126C13.9037 30.9997 13.6877 31.0735 13.5121 31.2097C13.3364 31.3459 13.2111 31.5367 13.156 31.752C13.0523 32.1599 12.9999 32.5791 13 33C13 34.3261 13.5268 35.5979 14.4645 36.5355C15.4021 37.4732 16.6739 38 18 38C18.4591 37.9973 18.9156 37.9299 19.356 37.8C19.7164 38.7394 20.3531 39.5474 21.1823 40.1174C22.0114 40.6873 22.9939 40.9924 24 40.9924C25.0061 40.9924 25.9886 40.6873 26.8177 40.1174C27.6469 39.5474 28.2836 38.7394 28.644 37.8C29.0843 37.9302 29.5408 37.9975 30 38C31.3261 38 32.5979 37.4732 33.5355 36.5355C34.4732 35.5979 35 34.3261 35 33C34.9995 32.579 34.9464 32.1598 34.842 31.752Z" fill="white"/>
</g>
<defs>
<clipPath id="clip0_5_229">
<rect width="48" height="48" fill="white"/>
</clipPath>
</defs>
</svg>
