<svg width="29" height="26" viewBox="0 0 29 26" fill="none" xmlns="http://www.w3.org/2000/svg">
<g id="Coin" clip-path="url(#clip0_5_283)">
<path id="Vector" d="M28.4605 19.3622V7.06823L17.6631 0.921265H11.2739V25.5091H17.6631L28.4605 19.3622Z" fill="#FFD44E"/>
<path id="Vector_2" d="M17.7261 26.1357H11.3422C11.1731 26.1358 11.0108 26.0699 10.8908 25.9525C10.7707 25.8352 10.7026 25.6758 10.7012 25.5091V0.921284C10.7026 0.754623 10.7707 0.595254 10.8908 0.477889C11.0108 0.360523 11.1731 0.294672 11.3422 0.294678H17.7261C17.8382 0.295737 17.9484 0.324207 18.0466 0.377535L28.8493 6.5245C28.9412 6.57837 29.0181 6.65388 29.0732 6.74426C29.1282 6.83464 29.1596 6.93707 29.1646 7.04236V19.3622C29.165 19.4721 29.1361 19.5802 29.0808 19.6757C29.0255 19.7711 28.9456 19.8505 28.8493 19.9059L18.0466 26.0529C17.9494 26.1087 17.8386 26.1373 17.7261 26.1357ZM11.978 24.8929H17.558L27.8983 18.9997V7.43075L17.558 1.55307H11.978V24.8929Z" fill="#FFB100"/>
<path id="Vector_3" d="M22.1397 19.3622V7.06823L11.3423 0.921265L0.539551 7.06823V19.3622L11.3423 25.5091L22.1397 19.3622Z" fill="#FFDF81"/>
<path id="Vector_4" d="M20.0694 18.1451L9.26671 24.2921L1.03857 19.6055V19.6159L11.8413 25.768L22.6387 19.6159V7.32711L20.0694 5.86157V18.1451Z" fill="#FFD44E"/>
<path id="Vector_5" d="M2.60961 8.30071L13.4123 2.15375L21.6405 6.83518V6.82482L10.843 0.677856L0.0402832 6.82482V19.1187L2.60961 20.5791V8.30071Z" fill="#FFF8E1"/>
<path id="Vector_6" d="M11.3422 26.1357C11.2298 26.1365 11.1192 26.1079 11.0217 26.0529L0.218946 19.9059C0.122003 19.8507 0.0414059 19.7715 -0.014825 19.6761C-0.071056 19.5807 -0.10096 19.4725 -0.101562 19.3622V7.06823C-0.0955726 6.96257 -0.0631778 6.86 -0.00726066 6.76965C0.0486565 6.6793 0.126363 6.60398 0.218946 6.55037L11.0217 0.377517C11.1188 0.323998 11.2282 0.295898 11.3395 0.295898C11.4508 0.295898 11.5603 0.323998 11.6574 0.377517L22.4601 6.52448C22.5537 6.577 22.6321 6.65206 22.6882 6.74264C22.7443 6.83321 22.7761 6.93634 22.7806 7.04234V19.3622C22.7811 19.4727 22.7517 19.5814 22.6953 19.6769C22.639 19.7725 22.5578 19.8516 22.4601 19.9059L11.6574 26.0529C11.562 26.1085 11.453 26.1371 11.3422 26.1357ZM1.17522 18.9997L11.3422 24.7841L21.5039 18.9997V7.43073L11.3422 1.64627L1.17522 7.43073V18.9997Z" fill="#FFB100"/>
<path id="Vector_7" d="M3.98633 17.0473V8.89109L11.1531 4.81555L13.3073 6.02734L6.14056 10.1029V18.2591L3.98633 17.0473Z" fill="#FFF8E1"/>
<path id="Vector_8" d="M18.7559 9.27429V17.4254L11.5892 21.5009L9.44019 20.2891L16.6017 16.2136V8.0625L18.7559 9.27429Z" fill="#FFD44E"/>
<path id="Vector_9" d="M11.3421 21.9981C11.2301 21.9964 11.1201 21.9679 11.0216 21.9152L3.85483 17.8345C3.75815 17.7795 3.67801 17.7002 3.62263 17.6046C3.56724 17.5091 3.53858 17.4008 3.53958 17.2907V9.13967C3.54311 9.03406 3.57392 8.93107 3.62909 8.84046C3.68425 8.74985 3.76194 8.67459 3.85483 8.62182L11.0216 4.54628C11.1179 4.49025 11.2277 4.46069 11.3395 4.46069C11.4513 4.46069 11.5611 4.49025 11.6574 4.54628L18.8242 8.62182C18.9177 8.67433 18.9962 8.74939 19.0522 8.83997C19.1083 8.93055 19.1401 9.03367 19.1447 9.13967V17.2907C19.1446 17.4012 19.1149 17.5096 19.0586 17.6051C19.0023 17.7006 18.9215 17.7797 18.8242 17.8345L11.6574 21.9152C11.561 21.9685 11.4526 21.997 11.3421 21.9981ZM4.8111 16.9282L11.3421 20.6465L17.8679 16.9282V9.50217L11.3421 5.78914L4.8111 9.50217V16.9282Z" fill="#FFB100"/>
<path id="Vector_10" d="M11.2897 14.7118C11.279 14.7068 11.2674 14.7042 11.2555 14.7042C11.2437 14.7042 11.232 14.7068 11.2214 14.7118L10.0602 15.2297C10.0409 15.2371 10.0196 15.2381 9.99969 15.2325C9.97975 15.2269 9.96224 15.215 9.94985 15.1986L9.1407 13.9454C9.13771 13.93 9.13771 13.9142 9.1407 13.8988V10.5897C9.1407 10.5781 9.14301 10.5667 9.1475 10.556C9.15198 10.5453 9.15856 10.5356 9.16686 10.5274C9.17515 10.5193 9.185 10.5128 9.19584 10.5084C9.20667 10.5039 9.21829 10.5017 9.23002 10.5017H13.1865C13.1997 10.5021 13.2128 10.5054 13.2246 10.5114C13.2364 10.5174 13.2467 10.5259 13.2548 10.5363C13.2628 10.5467 13.2684 10.5588 13.2711 10.5716C13.2739 10.5844 13.2737 10.5977 13.2705 10.6104L12.661 13.3861C12.656 13.4087 12.6421 13.4284 12.6225 13.441C12.6028 13.4536 12.5789 13.4581 12.556 13.4534L10.7065 13.0702C10.6952 13.0678 10.6846 13.0632 10.6753 13.0566C10.666 13.05 10.6581 13.0416 10.6522 13.0319C10.6463 13.0222 10.6425 13.0114 10.641 13.0002C10.6394 12.9889 10.6403 12.9775 10.6434 12.9667L10.8273 12.0967C10.8335 12.0747 10.8476 12.0558 10.8669 12.0434C10.8863 12.031 10.9096 12.026 10.9324 12.0293L11.4315 12.1329C11.4427 12.1348 11.4533 12.1388 11.4628 12.1448C11.4723 12.1508 11.4805 12.1586 11.4869 12.1678C11.4933 12.177 11.4977 12.1873 11.4999 12.1983C11.5021 12.2092 11.5021 12.2204 11.4998 12.2313L11.4578 12.4229C11.4544 12.4454 11.4595 12.4684 11.4721 12.4874C11.4846 12.5065 11.5039 12.5204 11.5261 12.5265L12.0148 12.63C12.0258 12.6331 12.0374 12.634 12.0488 12.6325C12.0601 12.631 12.0711 12.6272 12.0809 12.6214C12.0908 12.6156 12.0993 12.6078 12.106 12.5986C12.1127 12.5894 12.1174 12.579 12.1198 12.5679L12.309 11.7083C12.3137 11.6856 12.3092 11.6621 12.2964 11.6427C12.2836 11.6233 12.2636 11.6097 12.2407 11.6047L10.4122 11.2318C10.3892 11.2272 10.3653 11.2317 10.3457 11.2443C10.326 11.2569 10.3122 11.2766 10.3071 11.2992L9.85527 13.5C9.85059 13.5227 9.85512 13.5462 9.8679 13.5656C9.88068 13.585 9.90068 13.5986 9.92358 13.6036L13.1076 14.2768C13.1306 14.2815 13.1545 14.277 13.1742 14.2644C13.1938 14.2518 13.2077 14.2321 13.2127 14.2095L14.0744 9.94237C14.0776 9.92964 14.0778 9.91638 14.075 9.90356C14.0723 9.89074 14.0667 9.87868 14.0587 9.86826C14.0506 9.85784 14.0403 9.84932 14.0285 9.84333C14.0167 9.83734 14.0036 9.83402 13.9904 9.83362H8.54171C8.51802 9.83362 8.4953 9.84289 8.47855 9.8594C8.4618 9.87591 8.45239 9.89831 8.45239 9.92165V16.5192C8.45239 16.5425 8.4618 16.5649 8.47855 16.5814C8.4953 16.5979 8.51802 16.6072 8.54171 16.6072H14.0114C14.0341 16.6059 14.0555 16.596 14.0712 16.5796C14.0868 16.5633 14.0955 16.5416 14.0954 16.5192V14.9656C14.096 14.9513 14.0928 14.9371 14.0861 14.9243C14.0794 14.9116 14.0695 14.9008 14.0574 14.893C14.0452 14.8852 14.0312 14.8806 14.0167 14.8797C14.0022 14.8788 13.9877 14.8816 13.9746 14.8879L12.8344 15.3229C12.8141 15.3305 12.7917 15.3305 12.7714 15.3229L11.2897 14.7118Z" fill="#FFB100"/>
</g>
<defs>
<clipPath id="clip0_5_283">
<rect width="29" height="26" fill="white"/>
</clipPath>
</defs>
</svg>
